<svg xmlns="http://www.w3.org/2000/svg" viewBox="0 0 291.01 444.08"><title>conversion</title><g style="isolation:isolate"><g id="Layer_2" data-name="Layer 2"><g id="OBJECTS"><polyline points="122.72 238.32 26.91 0 264.1 0 168.3 238.32" fill="#347f9a"/><rect x="85.6" y="175.3" width="119.81" height="15.75" fill="#f7a630"/><rect x="85.6" y="183.18" width="119.81" height="7.88" fill="#e2872b"/><polygon points="90.44 191.05 122.71 238.32 168.3 238.32 200.57 191.05 90.44 191.05" fill="#e2872b"/><rect x="122.72" y="238.32" width="45.58" height="63.38" fill="#f7a630"/><path d="M173.71,250.27a3.33,3.33,0,0,1-3.52,3.11H120.82a3.34,3.34,0,0,1-3.52-3.11h0a3.34,3.34,0,0,1,3.52-3.12h49.37a3.34,3.34,0,0,1,3.52,3.12Z" fill="#e2872b"/><path d="M173.71,235.2a3.34,3.34,0,0,1-3.52,3.12H120.82a3.34,3.34,0,0,1-3.52-3.12h0a3.34,3.34,0,0,1,3.52-3.11h49.37a3.33,3.33,0,0,1,3.52,3.11Z" fill="#e2872b"/><rect x="122.72" y="253.38" width="45.58" height="3.11" fill="#c57625"/><rect x="122.72" y="238.32" width="45.58" height="3.11" fill="#c57625"/><path d="M95,183.18a2.79,2.79,0,1,1-2.79-2.79A2.79,2.79,0,0,1,95,183.18Z" fill="#e2872b"/><path d="M92.23,184.09a2.78,2.78,0,0,1-2.61-1.85,2.9,2.9,0,0,0-.17.94,2.79,2.79,0,0,0,5.57,0,2.9,2.9,0,0,0-.17-.94A2.78,2.78,0,0,1,92.23,184.09Z" fill="#c57625"/><path d="M106.86,183.18a2.79,2.79,0,1,1-2.79-2.79A2.79,2.79,0,0,1,106.86,183.18Z" fill="#e2872b"/><path d="M118.7,183.18a2.79,2.79,0,1,1-2.79-2.79A2.79,2.79,0,0,1,118.7,183.18Z" fill="#e2872b"/><path d="M130.53,183.18a2.79,2.79,0,1,1-2.78-2.79A2.78,2.78,0,0,1,130.53,183.18Z" fill="#e2872b"/><path d="M142.37,183.18a2.79,2.79,0,1,1-2.78-2.79A2.78,2.78,0,0,1,142.37,183.18Z" fill="#e2872b"/><path d="M154.21,183.18a2.79,2.79,0,1,1-2.78-2.79A2.79,2.79,0,0,1,154.21,183.18Z" fill="#e2872b"/><path d="M166.05,183.18a2.79,2.79,0,1,1-2.79-2.79A2.79,2.79,0,0,1,166.05,183.18Z" fill="#e2872b"/><path d="M177.89,183.18a2.79,2.79,0,1,1-2.79-2.79A2.79,2.79,0,0,1,177.89,183.18Z" fill="#e2872b"/><path d="M189.73,183.18a2.79,2.79,0,1,1-2.79-2.79A2.79,2.79,0,0,1,189.73,183.18Z" fill="#e2872b"/><path d="M201.56,183.18a2.79,2.79,0,1,1-2.78-2.79A2.78,2.78,0,0,1,201.56,183.18Z" fill="#e2872b"/><polygon points="196.68 196.75 200.57 191.05 90.44 191.05 94.33 196.75 196.68 196.75" fill="#c57625"/><path d="M104.07,184.09a2.77,2.77,0,0,1-2.61-1.85,2.9,2.9,0,0,0-.17.94,2.79,2.79,0,0,0,5.57,0,2.66,2.66,0,0,0-.18-.94A2.76,2.76,0,0,1,104.07,184.09Z" fill="#c57625"/><path d="M115.91,184.09a2.76,2.76,0,0,1-2.61-1.85,2.66,2.66,0,0,0-.17.94,2.79,2.79,0,0,0,5.57,0,2.66,2.66,0,0,0-.18-.94A2.76,2.76,0,0,1,115.91,184.09Z" fill="#c57625"/><path d="M127.75,184.09a2.76,2.76,0,0,1-2.61-1.85,2.66,2.66,0,0,0-.18.94,2.79,2.79,0,0,0,5.57,0,2.66,2.66,0,0,0-.17-.94A2.76,2.76,0,0,1,127.75,184.09Z" fill="#c57625"/><path d="M139.59,184.09a2.76,2.76,0,0,1-2.61-1.85,2.66,2.66,0,0,0-.18.94,2.79,2.79,0,0,0,5.57,0,2.66,2.66,0,0,0-.17-.94A2.77,2.77,0,0,1,139.59,184.09Z" fill="#c57625"/><path d="M151.43,184.09a2.78,2.78,0,0,1-2.62-1.85,2.9,2.9,0,0,0-.17.94,2.79,2.79,0,0,0,5.57,0,2.9,2.9,0,0,0-.17-.94A2.77,2.77,0,0,1,151.43,184.09Z" fill="#c57625"/><path d="M163.26,184.09a2.78,2.78,0,0,1-2.61-1.85,2.9,2.9,0,0,0-.17.94,2.79,2.79,0,0,0,5.57,0,2.9,2.9,0,0,0-.17-.94A2.78,2.78,0,0,1,163.26,184.09Z" fill="#c57625"/><path d="M175.1,184.09a2.77,2.77,0,0,1-2.61-1.85,2.9,2.9,0,0,0-.17.94,2.79,2.79,0,0,0,5.57,0,2.9,2.9,0,0,0-.17-.94A2.78,2.78,0,0,1,175.1,184.09Z" fill="#c57625"/><path d="M186.94,184.09a2.76,2.76,0,0,1-2.61-1.85,2.66,2.66,0,0,0-.18.94,2.79,2.79,0,0,0,5.58,0,2.66,2.66,0,0,0-.18-.94A2.76,2.76,0,0,1,186.94,184.09Z" fill="#c57625"/><path d="M198.78,184.09a2.76,2.76,0,0,1-2.61-1.85,2.66,2.66,0,0,0-.18.94,2.79,2.79,0,0,0,5.57,0,2.66,2.66,0,0,0-.17-.94A2.77,2.77,0,0,1,198.78,184.09Z" fill="#c57625"/><path d="M57.47,142.05a3.58,3.58,0,1,0,3.58,3.58A3.58,3.58,0,0,0,57.47,142.05Z" fill="#f2f2f2"/><path d="M74.23,147.39v-3.53L69.52,143a12.16,12.16,0,0,0-1.67-4l2.72-4-2.5-2.5-4,2.71a12.36,12.36,0,0,0-4-1.66l-.88-4.71H55.71l-.88,4.71a12.41,12.41,0,0,0-4,1.66l-4-2.71-2.5,2.5,2.72,4a12.14,12.14,0,0,0-1.66,4l-4.72.88v3.53l4.72.88a12.19,12.19,0,0,0,1.66,4l-2.72,4,2.5,2.5,4-2.72a12.19,12.19,0,0,0,4,1.66l.88,4.72h3.53l.88-4.72a12.14,12.14,0,0,0,4-1.66l4,2.72,2.5-2.5-2.72-4a12.21,12.21,0,0,0,1.67-4Zm-16.76,5.82a7.59,7.59,0,1,1,7.59-7.58A7.59,7.59,0,0,1,57.47,153.21Z" fill="#f2f2f2"/><path d="M40.71,116.47a3.58,3.58,0,1,0,3.58,3.58A3.58,3.58,0,0,0,40.71,116.47Z" fill="#5db8b9"/><path d="M57.47,121.81v-3.53l-4.71-.88a12.36,12.36,0,0,0-1.66-4l2.71-4-2.5-2.5-4,2.72a11.93,11.93,0,0,0-4-1.66l-.88-4.72H39L38.07,108a12,12,0,0,0-4,1.66l-4-2.72-2.5,2.5,2.72,4a12.14,12.14,0,0,0-1.66,4l-4.72.88v3.53l4.72.88a12.19,12.19,0,0,0,1.66,4l-2.72,4,2.5,2.5,4-2.72a12,12,0,0,0,4,1.66l.88,4.72h3.53l.88-4.72a11.93,11.93,0,0,0,4-1.66l4,2.72,2.5-2.5-2.71-4a12.41,12.41,0,0,0,1.66-4Zm-16.76,5.82a7.59,7.59,0,1,1,7.59-7.58A7.59,7.59,0,0,1,40.71,127.63Z" fill="#5db8b9"/><path d="M40.71,167.9a3.58,3.58,0,1,0,3.58,3.58A3.58,3.58,0,0,0,40.71,167.9Z" fill="#e2872b"/><path d="M57.47,173.24v-3.53l-4.71-.88a12.5,12.5,0,0,0-1.66-4l2.71-4-2.5-2.49-4,2.71a12.36,12.36,0,0,0-4-1.66l-.88-4.71H39l-.88,4.71a12.41,12.41,0,0,0-4,1.66l-4-2.71-2.5,2.49,2.72,4a12.28,12.28,0,0,0-1.66,4l-4.72.88v3.53l4.72.88a12.28,12.28,0,0,0,1.66,4l-2.72,4,2.5,2.49,4-2.71a12.41,12.41,0,0,0,4,1.66l.88,4.72h3.53l.88-4.72a12.36,12.36,0,0,0,4-1.66l4,2.71,2.5-2.49-2.71-4a12.5,12.5,0,0,0,1.66-4Zm-16.76,5.82a7.59,7.59,0,1,1,7.59-7.59A7.59,7.59,0,0,1,40.71,179.06Z" fill="#e2872b"/><path d="M224.81,136.49,233,155.17l-18.68,8.22h0c.23.53.49,1.05.76,1.55l18.61-8.19,1.57-.7-.69-1.57-8.19-18.61C225.88,136.05,225.34,136.26,224.81,136.49Z" fill="#176d8c"/><path d="M224.81,136.49,233,155.17l-18.68,8.22h0c.23.53.49,1.05.76,1.55l18.61-8.19,1.57-.7-.69-1.57-8.19-18.61C225.88,136.05,225.34,136.26,224.81,136.49Z" fill="#176d8c"/><path d="M251.72,147a20.4,20.4,0,0,0-25.3-11.07l8.18,18.6.69,1.57-1.57.7-18.6,8.18a20.41,20.41,0,0,0,36.6-18Z" fill="#f2f2f2"/><path d="M224.81,136.49a20.41,20.41,0,0,0-10.46,26.9h0L233,155.17Z" fill="#f7a630"/><path d="M241.07,86.84A21.31,21.31,0,1,1,212.59,77,21.32,21.32,0,0,1,241.07,86.84Z" fill="#f2f2f2"/><path d="M238,88.32a17.92,17.92,0,1,1-24-8.31A17.94,17.94,0,0,1,238,88.32Z" fill="#f7a630"/><path d="M235,89.8a14.53,14.53,0,1,1-19.42-6.74A14.53,14.53,0,0,1,235,89.8Z" fill="#f2f2f2"/><path d="M231.91,91.28A11.14,11.14,0,1,1,217,86.11,11.13,11.13,0,0,1,231.91,91.28Z" fill="#f7a630"/><path d="M228.86,92.76a7.75,7.75,0,1,1-10.35-3.6A7.74,7.74,0,0,1,228.86,92.76Z" fill="#f2f2f2"/><path d="M225.81,94.24a4.36,4.36,0,1,1-5.82-2A4.36,4.36,0,0,1,225.81,94.24Z" fill="#f7a630"/><path d="M243.19,95.26,221.9,95a1.16,1.16,0,1,0,0,2.31l21.28.29A22.4,22.4,0,0,0,243.19,95.26Z" fill="#04343f" opacity="0.5" style="mix-blend-mode:multiply"/><polygon points="243.21 79.06 242.82 86 252.17 81.47 252.56 74.53 243.21 79.06" fill="#5db8b9"/><polygon points="252.17 81.47 257.85 85.46 248.5 89.99 242.82 86 252.17 81.47" fill="#5db8b9"/><path d="M254.3,81.72,222.39,97.18a1.16,1.16,0,0,1-1-2.08l31.91-15.46a1.16,1.16,0,0,1,1,2.08Z" fill="#04343f"/><path d="M134.31,129.39A7.9,7.9,0,0,1,130.7,140l-8.57,4.22a7.91,7.91,0,0,1-10.59-3.61h0A7.9,7.9,0,0,1,115.15,130l8.56-4.22a7.91,7.91,0,0,1,10.6,3.61Z" fill="#04343f"/><path d="M128.72,135.94l-8.58,4.22a7.93,7.93,0,0,1-9.3-1.73,7.92,7.92,0,0,0,11.29,5.77L130.7,140A7.91,7.91,0,0,0,133,127.51,7.92,7.92,0,0,1,128.72,135.94Z" fill="#04343f" opacity="0.4" style="mix-blend-mode:multiply"/><path d="M107.45,145a2.15,2.15,0,0,1-1,2.89l-8.11,4a2.15,2.15,0,0,1-2.89-1l-1.87-3.79a2.16,2.16,0,0,1,1-2.9l8.1-4a2.17,2.17,0,0,1,2.9,1Z" fill="#04343f"/><path d="M104.58,144l-8.11,4a2.16,2.16,0,0,1-2.88-1,0,0,0,0,1,0,0l1.87,3.79a2.15,2.15,0,0,0,2.89,1l8.11-4a2.15,2.15,0,0,0,1-2.89l-1.86-3.79,0,0A2.16,2.16,0,0,1,104.58,144Z" fill="#04343f" opacity="0.4" style="mix-blend-mode:multiply"/><path d="M104.76,149.47a2.27,2.27,0,0,1-1,3h0a2.28,2.28,0,0,1-3-1l-4.39-8.93a2.27,2.27,0,0,1,1-3h0a2.28,2.28,0,0,1,3,1Z" fill="#f2f2f2"/><path d="M101.27,147.51a2.29,2.29,0,0,1-3-1l2.46,5a2.27,2.27,0,0,0,4.08-2l-2.46-5A2.27,2.27,0,0,1,101.27,147.51Z" fill="#b4d4df"/><rect x="128.74" y="113.88" width="1.64" height="35.69" transform="translate(-44.88 70.82) rotate(-26.23)" fill="#f7a630"/><rect x="134.71" y="139.53" width="1.64" height="8.65" transform="translate(-49.62 74.71) rotate(-26.23)" fill="#c57625"/><rect x="99.58" y="133.3" width="18.39" height="17.3" transform="translate(-51.5 62.62) rotate(-26.2)" fill="#f7a630"/><rect x="101.49" y="141.51" width="18.39" height="8.65" transform="translate(-53.02 63.86) rotate(-26.2)" fill="#c57625"/><polygon points="113.2 130.13 120.94 116.07 136.7 148.1 120.84 145.66 113.2 130.13" fill="#f2f2f2"/><polygon points="132.88 140.33 117.03 137.89 120.84 145.66 136.7 148.1 132.88 140.33" fill="#b4d4df"/><polygon points="105.89 153.02 106.79 154.87 111.95 155.46 117.67 167.08 125.47 163.24 124.68 161.65 124.04 161.96 122.58 161.46 115.98 148.05 105.89 153.02" fill="#04343f"/><rect x="105.58" y="150.47" width="11.25" height="1.25" transform="translate(-55.29 64.63) rotate(-26.2)" fill="#04343f" opacity="0.4" style="mix-blend-mode:multiply"/><polygon points="117.94 147.09 120.22 151.73 118.88 153.96 115.98 148.05 117.94 147.09" fill="#f2f2f2"/><rect x="116.14" y="147.5" width="2.18" height="1.25" transform="translate(-53.47 67.23) rotate(-26.28)" fill="#b4d4df"/><polygon points="25.74 89.99 23.95 86.71 22.16 89.99 18.88 91.78 22.16 93.57 23.95 96.84 25.74 93.57 29.02 91.78 25.74 89.99" fill="#e2872b"/><polygon points="109.01 63.11 107.67 60.68 106.34 63.11 103.91 64.44 106.34 65.77 107.67 68.21 109.01 65.77 111.44 64.44 109.01 63.11" fill="#e2872b"/><polygon points="197.79 127.81 196 124.53 194.2 127.81 190.93 129.6 194.2 131.39 196 134.67 197.79 131.39 201.06 129.6 197.79 127.81" fill="#e2872b"/><polygon points="221.05 189.26 219.26 185.99 217.47 189.26 214.19 191.05 217.47 192.85 219.26 196.12 221.05 192.85 224.33 191.05 221.05 189.26" fill="#04343f"/><polygon points="154.61 134.28 152.82 131.01 151.03 134.28 147.75 136.08 151.03 137.87 152.82 141.14 154.61 137.87 157.88 136.08 154.61 134.28" fill="#04343f"/><polygon points="73.28 175.69 71.49 172.41 69.7 175.69 66.42 177.48 69.7 179.27 71.49 182.55 73.28 179.27 76.56 177.48 73.28 175.69" fill="#5db8b9"/><polygon points="262.29 45.99 260.5 42.72 258.71 45.99 255.43 47.79 258.71 49.58 260.5 52.85 262.29 49.58 265.57 47.79 262.29 45.99" fill="#5db8b9"/><polygon points="95.39 110.78 93.59 107.51 91.8 110.78 88.53 112.57 91.8 114.37 93.59 117.64 95.39 114.37 98.66 112.57 95.39 110.78" fill="#5db8b9"/><polygon points="273.37 119.87 271.57 116.59 269.78 119.87 266.5 121.66 269.78 123.45 271.57 126.73 273.37 123.45 276.64 121.66 273.37 119.87" fill="#f2f2f2"/><polygon points="181.13 30.4 179.33 27.13 177.54 30.4 174.27 32.19 177.54 33.98 179.33 37.26 181.13 33.98 184.4 32.19 181.13 30.4" fill="#f2f2f2"/><polygon points="25.74 38.99 23.95 35.71 22.16 38.99 18.89 40.78 22.16 42.57 23.95 45.85 25.74 42.57 29.02 40.78 25.74 38.99" fill="#f2f2f2"/><path d="M179.14,139.86c-9.1-2.77-17.23,2.54-19.74,10.75a12.79,12.79,0,0,0,8.7,16.51,17.18,17.18,0,0,0,7.81.8v-2.55a13.83,13.83,0,0,1-6.23-.49c-6-1.84-9.14-7-7.09-13.7,2.34-7.68,9.21-10.87,15.37-9s8.38,7,6.79,12.24c-1.42,4.63-4.26,6.18-6,5.61-1.12-.38-1.07-1.55.06-3.81l3.48-7.08a11.9,11.9,0,0,0-4.49-2.47,9.62,9.62,0,0,0-12.28,6.52c-1,3.3.3,5.81,2.91,6.6a6.16,6.16,0,0,0,6.14-1.52l.09,0a3.3,3.3,0,0,0,2.51,4.16c4.35,1.32,8.78-1.37,10.57-7.25C189.81,148.44,186.23,142,179.14,139.86Zm-3.47,14c-1.08,2.23-3.22,3.64-4.71,3.19-1.33-.41-1.72-1.58-1.25-3.11.94-3.1,3.83-5.08,6.49-4.27a5.28,5.28,0,0,1,1.2.54Z" fill="#f2f2f2"/><polygon points="118.61 97.16 111.56 90.31 115.61 88.49 99.97 81.27 107.68 96.67 109.37 92.56 116.43 99.41 118.61 97.16" fill="#f5f5f5"/><path d="M217.13,47.05a2.2,2.2,0,1,1-2.6-1.71A2.19,2.19,0,0,1,217.13,47.05Z" fill="#04343f"/><path d="M211.4,41.09a9.21,9.21,0,0,1,10.87,7.14l2.95-.61a12.21,12.21,0,0,0-14.43-9.47Z" fill="#04343f"/><path d="M209.81,33.41A17.06,17.06,0,0,1,230,46.64h0l3.37-.7h0A20.5,20.5,0,0,0,209.11,30Z" fill="#04343f"/><path d="M208.23,25.82a24.82,24.82,0,0,1,29.31,19.24h0l3.64-.76h0a28.55,28.55,0,0,0-33.7-22.12Z" fill="#04343f"/><polygon points="91.18 45.32 102.18 49.71 98.28 44.5 91.18 45.32" fill="#c57625"/><path d="M68.2,48.67a5,5,0,0,0,6.24,3.27l23.79-7.42a5,5,0,0,0,3.27-6.24L97.6,25.8a5,5,0,0,0-6.23-3.27L67.58,30a5,5,0,0,0-3.27,6.24Z" fill="#c57625"/><polygon points="67.56 46.6 61.01 56.46 61.25 49.96 67.56 46.6" fill="#f7a630"/><path d="M88.36,36.28a5,5,0,0,1-3.27,6.24L61.3,49.94a5,5,0,0,1-6.24-3.27L51.17,34.19A5,5,0,0,1,54.44,28l23.79-7.42a5,5,0,0,1,6.24,3.27Z" fill="#f7a630"/><rect x="54.86" y="28.65" width="26.42" height="2.3" transform="translate(-5.78 21.62) rotate(-17.33)" fill="#f2f2f2"/><rect x="56.56" y="34.09" width="26.42" height="2.3" transform="translate(-7.33 22.37) rotate(-17.33)" fill="#f2f2f2"/><rect x="58.26" y="39.53" width="26.42" height="2.3" transform="translate(-8.87 23.13) rotate(-17.33)" fill="#f2f2f2"/><path d="M189.43,105.21a16,16,0,1,1-12.8-18.64A16,16,0,0,1,189.43,105.21Z" fill="#5db8b9"/><path d="M185.76,104.53A12.26,12.26,0,1,1,176,90.24,12.25,12.25,0,0,1,185.76,104.53Z" fill="#b4d4df"/><path d="M175.68,100.05a.28.28,0,0,1-.24-.36l.27-1.46a.68.68,0,0,0-.61-.89l-.91-.17a.69.69,0,0,0-.89.61l-.48,2.6,4.2,2.29a.69.69,0,0,1,.36.79l-.81,4.34a2.44,2.44,0,0,1-3,2.23l-.21,1.11a.28.28,0,0,1-.36.24l-1.82-.34a.26.26,0,0,1-.24-.35l.2-1.11a2.45,2.45,0,0,1-2-3.18l.37-2a.26.26,0,0,1,.35-.24l2,.36a.26.26,0,0,1,.24.35l-.27,1.45a.69.69,0,0,0,.61.89l.91.17a.68.68,0,0,0,.89-.61l.46-2.5L170.4,102a.69.69,0,0,1-.38-.79l.83-4.44a2.44,2.44,0,0,1,3-2.23l.21-1.11a.27.27,0,0,1,.36-.25l1.82.34a.29.29,0,0,1,.25.36L176.31,95a2.44,2.44,0,0,1,2.05,3.18l-.37,2a.27.27,0,0,1-.36.24Z" fill="#176d8c"/><path d="M169.71,100.81a15.91,15.91,0,0,0-9.51-7.07,16,16,0,0,0,9.39,24A16,16,0,0,0,169.71,100.81Z" fill="#04343f" opacity="0.5" style="mix-blend-mode:multiply"/><path d="M166.44,95.92a16,16,0,1,1-22-5.26A16,16,0,0,1,166.44,95.92Z" fill="#5db8b9"/><path d="M163.26,97.87a12.26,12.26,0,1,1-16.86-4A12.26,12.26,0,0,1,163.26,97.87Z" fill="#b4d4df"/><path d="M152.78,101.31a.28.28,0,0,1-.42-.11l-.78-1.27a.68.68,0,0,0-1.05-.25l-.78.48a.7.7,0,0,0-.26,1.06l1.39,2.24,4.65-1.11a.7.7,0,0,1,.79.34l2.32,3.77a2.44,2.44,0,0,1-.78,3.7l.59,1a.28.28,0,0,1-.1.42l-1.58,1a.26.26,0,0,1-.42-.1l-.59-1a2.44,2.44,0,0,1-3.64-1l-1.05-1.71a.27.27,0,0,1,.1-.42l1.7-1a.27.27,0,0,1,.42.1l.77,1.25a.68.68,0,0,0,1.05.25l.78-.48a.68.68,0,0,0,.25-1l-1.33-2.17-4.64,1.11a.69.69,0,0,1-.81-.34L147,102.12a2.45,2.45,0,0,1,.76-3.7l-.59-1a.27.27,0,0,1,.1-.42l1.58-1a.28.28,0,0,1,.42.1l.59,1a2.44,2.44,0,0,1,3.65,1l1.06,1.72a.28.28,0,0,1-.1.43Z" fill="#176d8c"/><rect x="50.8" y="63.56" width="25.36" height="38.85" rx="5" transform="translate(-36.8 112.34) rotate(-68.9)" fill="#04343f"/><polygon points="58.18 73.53 53.2 86.44 72.03 86.29 58.18 73.53" fill="#f2f2f2"/><path d="M75.78,91.17,48.86,80.78A5,5,0,0,1,46,74.32l-3.41,8.84a5,5,0,0,0,2.86,6.46L72.37,100a5,5,0,0,0,6.47-2.86l3.41-8.84A5,5,0,0,1,75.78,91.17Z" fill="#04343f" opacity="0.4" style="mix-blend-mode:multiply"/><polyline points="196.97 49.12 179.33 65.74 203.41 68.6" fill="none" stroke="#f7a630" stroke-miterlimit="10" stroke-width="2"/><path d="M182.49,64.7a3.32,3.32,0,1,1-4.2-2.11A3.33,3.33,0,0,1,182.49,64.7Z" fill="#f2f2f2"/><path d="M200.13,48.08a3.32,3.32,0,1,1-4.2-2.12A3.32,3.32,0,0,1,200.13,48.08Z" fill="#5db8b9"/><path d="M206.56,67.56a3.32,3.32,0,1,1-4.2-2.12A3.32,3.32,0,0,1,206.56,67.56Z" fill="#5db8b9"/><path d="M146.32,67.15a3.41,3.41,0,0,1-6.71-1.26,3.41,3.41,0,1,1,6.71,1.26Zm7.59-2c.32.06.5.29.25.55l-12.57,13c-.19.21-.29.3-.55.25l-2-.37c-.32-.06-.5-.29-.25-.56l12.58-13c.2-.21.3-.3.56-.25Zm-12.1,1.17a1.19,1.19,0,0,0,2.34.44,1.23,1.23,0,0,0-.93-1.41A1.21,1.21,0,0,0,141.81,66.3ZM153,78a3.41,3.41,0,0,1-6.71-1.25A3.41,3.41,0,1,1,153,78Zm-4.52-.84a1.19,1.19,0,1,0,1.42-1A1.22,1.22,0,0,0,148.46,77.18Z" fill="#04343f"/><rect x="118.15" y="21.5" width="42.88" height="28.31" transform="translate(-3.84 49.23) rotate(-19.74)" fill="#f5f5f5"/><polygon points="123.44 54.15 137.94 31.07 124.19 56.21 123.44 54.15" fill="#b4d4df"/><polygon points="163.81 39.67 137.94 31.07 164.55 41.73 163.81 39.67" fill="#b4d4df"/><polygon points="114.63 29.57 142.54 43.89 154.99 15.09 114.63 29.57" fill="#b4d4df"/><polygon points="114.63 29.57 141.23 40.23 154.99 15.09 114.63 29.57" fill="#f5f5f5"/><path d="M291,433.7c0,5.74-65.14,10.38-145.5,10.38S0,439.44,0,433.7s65.15-10.38,145.51-10.38S291,428,291,433.7Z" fill="#176d8c" opacity="0.6" style="mix-blend-mode:multiply"/><path d="M266.48,272.68a12,12,0,0,0-12-11.62h-218a12,12,0,0,0-12,11.62h0V411.37h242V272.68Z" fill="#f2f2f2"/><path d="M35.47,419.69H13.55v.38h0a12,12,0,0,0,12,11.63h239.9a12,12,0,0,0,12-11.62h0v-.39Z" fill="#f2f2f2"/><path d="M30.51,405.37h230l0-132.5a6,6,0,0,0-6-5.81h-218a6,6,0,0,0-6,5.81l0,.52Z" fill="#d4edf4"/><path d="M254.46,273.06h0l0,126.29h-218V273.1l0,0H254.46m0-6h-218a6,6,0,0,0-6,5.81l0,.52v132h230l0-132.5a6,6,0,0,0-6-5.81Z" fill="#04343f"/><rect x="13.55" y="411.37" width="263.92" height="8.77" fill="#5db8b9"/><path d="M105.33,411.37h-8v.14h0a4.39,4.39,0,0,0,4.37,4.25H189.3a4.41,4.41,0,0,0,4.38-4.25h0v-.14Z" fill="#04343f"/><path d="M220.43,415.71a.72.72,0,0,0-.72-.71h-17a.72.72,0,1,0,0,1.43h17A.72.72,0,0,0,220.43,415.71Z" fill="#04343f"/><path d="M245,415.71a.71.71,0,0,0-.72-.71h-17a.72.72,0,0,0,0,1.43h17A.72.72,0,0,0,245,415.71Z" fill="#04343f"/><path d="M251.52,415.71a1.63,1.63,0,1,1-1.62-1.62A1.63,1.63,0,0,1,251.52,415.71Z" fill="#04343f"/><path d="M260.5,415.71a1.62,1.62,0,1,1-1.62-1.62A1.63,1.63,0,0,1,260.5,415.71Z" fill="#04343f"/><polygon points="36.52 399.36 254.48 273.07 254.5 399.36 36.52 399.36" fill="#b4d4df"/><polyline points="47.01 341.77 68.42 322.97 89.45 336.93 116.31 315.91 141.21 332.73 172.72 309.91 199.57 332.37 244 295.29" fill="none" stroke="#347f9a" stroke-miterlimit="10" stroke-width="2"/><path d="M51.18,341.78A4.17,4.17,0,1,1,47,337.61,4.17,4.17,0,0,1,51.18,341.78Z" fill="#176d8c"/><path d="M49.09,341.78A2.09,2.09,0,1,1,47,339.69,2.08,2.08,0,0,1,49.09,341.78Z" fill="#d4edf4"/><path d="M72.62,322.7a4.17,4.17,0,1,1-4.17-4.17A4.17,4.17,0,0,1,72.62,322.7Z" fill="#176d8c"/><path d="M70.54,322.7a2.09,2.09,0,1,1-2.09-2.08A2.09,2.09,0,0,1,70.54,322.7Z" fill="#d4edf4"/><path d="M93.57,336.52a4.17,4.17,0,1,1-4.16-4.17A4.17,4.17,0,0,1,93.57,336.52Z" fill="#176d8c"/><path d="M91.49,336.52a2.09,2.09,0,1,1-2.09-2.08A2.08,2.08,0,0,1,91.49,336.52Z" fill="#d4edf4"/><path d="M120.6,316.45a4.17,4.17,0,1,1-4.17-4.17A4.17,4.17,0,0,1,120.6,316.45Z" fill="#176d8c"/><path d="M118.52,316.45a2.09,2.09,0,1,1-2.09-2.09A2.09,2.09,0,0,1,118.52,316.45Z" fill="#d4edf4"/><path d="M145.51,332.47a4.17,4.17,0,1,1-4.17-4.17A4.17,4.17,0,0,1,145.51,332.47Z" fill="#176d8c"/><path d="M143.42,332.47a2.09,2.09,0,1,1-2.08-2.08A2.08,2.08,0,0,1,143.42,332.47Z" fill="#b4d4df"/><path d="M177,309.91a4.17,4.17,0,1,1-4.17-4.17A4.17,4.17,0,0,1,177,309.91Z" fill="#176d8c"/><path d="M174.94,309.91a2.09,2.09,0,1,1-2.08-2.08A2.08,2.08,0,0,1,174.94,309.91Z" fill="#b4d4df"/><path d="M203.82,332.47a4.17,4.17,0,1,1-4.17-4.17A4.17,4.17,0,0,1,203.82,332.47Z" fill="#176d8c"/><path d="M201.74,332.47a2.09,2.09,0,1,1-2.09-2.08A2.09,2.09,0,0,1,201.74,332.47Z" fill="#b4d4df"/><path d="M248.17,295.29a4.17,4.17,0,1,1-4.17-4.17A4.17,4.17,0,0,1,248.17,295.29Z" fill="#176d8c"/><path d="M246.09,295.29A2.09,2.09,0,1,1,244,293.2,2.09,2.09,0,0,1,246.09,295.29Z" fill="#b4d4df"/><rect x="42.99" y="348.24" width="8.18" height="27.92" fill="#f7a630"/><rect x="53.36" y="339.76" width="8.18" height="36.39" fill="#176d8c"/><rect x="63.73" y="331.14" width="8.18" height="45.01" fill="#f7a630"/><rect x="74.1" y="336.52" width="8.17" height="39.64" fill="#176d8c"/><rect x="84.47" y="342.28" width="8.18" height="33.88" fill="#f7a630"/><rect x="94.84" y="336.88" width="8.18" height="39.28" fill="#176d8c"/><rect x="105.21" y="329.36" width="8.18" height="46.8" fill="#f7a630"/><rect x="115.57" y="323.56" width="8.18" height="52.6" fill="#176d8c"/><rect x="125.94" y="334.55" width="8.18" height="41.6" fill="#f7a630"/><rect x="136.31" y="339.33" width="8.17" height="36.83" fill="#176d8c"/><rect x="146.68" y="336.64" width="8.17" height="39.52" fill="#f7a630"/><rect x="157.05" y="325.04" width="8.17" height="51.11" fill="#176d8c"/><rect x="167.42" y="317.6" width="8.17" height="58.55" fill="#f7a630"/><rect x="177.79" y="325.04" width="8.17" height="51.11" fill="#176d8c"/><rect x="188.15" y="337.84" width="8.17" height="38.31" fill="#f7a630"/><rect x="198.52" y="339.19" width="8.17" height="36.97" fill="#176d8c"/><rect x="208.89" y="328.3" width="8.17" height="47.85" fill="#f7a630"/><rect x="219.26" y="320.43" width="8.17" height="55.72" fill="#176d8c"/><rect x="229.63" y="311.06" width="8.17" height="65.1" fill="#f7a630"/><rect x="240" y="303.02" width="8.17" height="73.13" fill="#176d8c"/></g></g></g></svg>