<svg xmlns="http://www.w3.org/2000/svg" xmlns:xlink="http://www.w3.org/1999/xlink" viewBox="0 0 459.06 393.18"><defs><clipPath id="clip-path"><path d="M286.39,232.41C269,233.38,256,253.14,256,253.14s15.13,18.18,32.5,17.2,30.38-20.72,30.38-20.72S303.76,231.44,286.39,232.41Z" fill="none"/></clipPath><clipPath id="clip-path-2"><path d="M143.33,251.72c19.67,17,54.16,9.25,54.16,9.25s2.6-35.25-17.08-52.23-54.16-9.25-54.16-9.25S123.65,234.74,143.33,251.72Z" fill="none"/></clipPath><clipPath id="clip-path-3"><path d="M315.3,234.31c-17.83,16.15-49.25,10.52-49.25,10.52s-2.51-31.82,15.32-48,49.25-10.52,49.25-10.52S333.12,218.16,315.3,234.31Z" fill="none"/></clipPath></defs><title>improved-design</title><g style="isolation:isolate"><g id="Layer_2" data-name="Layer 2"><g id="OBJECT"><rect x="368.51" y="227.42" width="25.38" height="25.38" rx="5.36" transform="translate(-45.32 385.2) rotate(-50.99)" fill="#8fd8d3"/><path d="M378.7,229.62a19.65,19.65,0,0,1,4.94,4,3.92,3.92,0,0,1,.35,4.67,4.22,4.22,0,0,1-4.55,2,7.14,7.14,0,0,1-3.06-1.62l-.7-.57-3,3.65-2.31-1.87Zm-1.49,6.62a4.23,4.23,0,0,0,2,1.35,2,2,0,0,0,2.25-1,1.73,1.73,0,0,0-.25-2.22,15.45,15.45,0,0,0-1.5-1.24Z" fill="#fff"/><path d="M389.19,243.11l-1.64,1.21c-.39-.52-.75-1-1.16-1.49a1.5,1.5,0,0,0-.69-.48,1,1,0,0,0-.78.11.86.86,0,0,0-.16.75,7.24,7.24,0,0,0,.57,1.15,11.18,11.18,0,0,1,.65,1.41,2.81,2.81,0,0,1-3.06,3.63,5.27,5.27,0,0,1-3.16-1.69c-.59-.59-1.07-1.29-1.64-2l1.74-1.33c.62.75,1.2,1.46,1.81,2.15a1,1,0,0,0,.6.33.94.94,0,0,0,.71-.16,1,1,0,0,0,.19-.76,4.07,4.07,0,0,0-.44-.92,11.59,11.59,0,0,1-.76-1.59,2.7,2.7,0,0,1,2.8-3.61A5.76,5.76,0,0,1,389.19,243.11Z" fill="#fff"/><path d="M401.19,163.42H299.3c-15.36,0-15.56-19.06-1.92-22.89a26.73,26.73,0,0,1,24,5.08s3.7-46.85,38.77-41.35c27.65,4.34,26.05,34.45,26.05,34.45s5.69-12.39,20.61-7.7C422.36,135.9,420.67,163.42,401.19,163.42Z" fill="#ebf5f7"/><path d="M286.39,232.41C269,233.38,256,253.14,256,253.14s15.13,18.18,32.5,17.2,30.38-20.72,30.38-20.72S303.76,231.44,286.39,232.41Z" fill="#023d5f"/><g clip-path="url(#clip-path)"><line x1="254.35" y1="253.17" x2="320.54" y2="249.47" fill="none" stroke="#17a59e" stroke-miterlimit="10"/><line x1="285.04" y1="271.23" x2="268.94" y2="252.35" fill="none" stroke="#17a59e" stroke-miterlimit="10"/><line x1="308.06" y1="269.95" x2="291.97" y2="251.07" fill="none" stroke="#17a59e" stroke-miterlimit="10"/><line x1="281.07" y1="251.67" x2="298.5" y2="233.41" fill="none" stroke="#17a59e" stroke-miterlimit="10"/><line x1="296.49" y1="250.87" x2="308.43" y2="238.7" fill="none" stroke="#17a59e" stroke-miterlimit="10"/></g><ellipse cx="219.64" cy="308.38" rx="131.65" ry="16.93" fill="#dae4e5"/><ellipse cx="351.16" cy="317.98" rx="96.6" ry="21.06" fill="#dae4e5"/><path d="M143.33,251.72c19.67,17,54.16,9.25,54.16,9.25s2.6-35.25-17.08-52.23-54.16-9.25-54.16-9.25S123.65,234.74,143.33,251.72Z" fill="#023d5f"/><g clip-path="url(#clip-path-2)"><line x1="199.3" y1="262.66" x2="124.32" y2="197.94" fill="none" stroke="#17a59e" stroke-miterlimit="10"/><line x1="185.07" y1="211.39" x2="182.77" y2="248.39" fill="none" stroke="#17a59e" stroke-miterlimit="10"/><line x1="158.98" y1="188.88" x2="156.69" y2="225.88" fill="none" stroke="#17a59e" stroke-miterlimit="10"/><line x1="169.04" y1="236.54" x2="131.34" y2="238.08" fill="none" stroke="#17a59e" stroke-miterlimit="10"/><line x1="151.63" y1="221.39" x2="126.16" y2="222.08" fill="none" stroke="#17a59e" stroke-miterlimit="10"/></g><path d="M99.65,237.19H10.38c-13.46,0-13.63-15.31-1.68-18.38a24.92,24.92,0,0,1,21,4.07s3.24-37.62,34-33.2c24.22,3.48,22.82,27.67,22.82,27.67s5-10,18-6.19C118.2,215.09,116.72,237.19,99.65,237.19Z" fill="#ebf5f7"/><path d="M119.79,80h71.86c10.83,0,11-12.32,1.35-14.8a20.06,20.06,0,0,0-16.92,3.28s-2.61-30.28-27.34-26.73C129.24,44.58,130.37,64,130.37,64s-4-8-14.53-5C104.86,62.23,106.05,80,119.79,80Z" fill="#ebf5f7"/><path d="M132.63,302.34c0,3.34-19.24,6-43,6s-43-2.7-43-6,19.24-6,43-6S132.63,299,132.63,302.34Z" fill="#dae4e5"/><line x1="62.96" y1="302.78" x2="76.49" y2="161.19" fill="none" stroke="#023d5f" stroke-miterlimit="10" stroke-width="2"/><line x1="116.91" y1="302.78" x2="103.38" y2="161.19" fill="none" stroke="#023d5f" stroke-miterlimit="10" stroke-width="2"/><line x1="75.41" y1="172.48" x2="104.45" y2="172.48" fill="none" stroke="#023d5f" stroke-miterlimit="10" stroke-width="2"/><line x1="73.79" y1="189.47" x2="106.08" y2="189.47" fill="none" stroke="#023d5f" stroke-miterlimit="10" stroke-width="2"/><line x1="72.16" y1="206.47" x2="107.7" y2="206.47" fill="none" stroke="#023d5f" stroke-miterlimit="10" stroke-width="2"/><line x1="70.54" y1="223.46" x2="109.33" y2="223.46" fill="none" stroke="#023d5f" stroke-miterlimit="10" stroke-width="2"/><line x1="68.91" y1="240.45" x2="110.89" y2="240.45" fill="none" stroke="#023d5f" stroke-miterlimit="10" stroke-width="2"/><line x1="67.29" y1="257.45" x2="112.53" y2="257.45" fill="none" stroke="#023d5f" stroke-miterlimit="10" stroke-width="2"/><line x1="65.66" y1="274.44" x2="114.19" y2="274.44" fill="none" stroke="#023d5f" stroke-miterlimit="10" stroke-width="2"/><line x1="64.04" y1="291.44" x2="115.28" y2="291.44" fill="none" stroke="#023d5f" stroke-miterlimit="10" stroke-width="2"/><path d="M105.13,162H74.73A1.76,1.76,0,0,1,73,160.28h0a1.75,1.75,0,0,1,1.76-1.75h30.4a1.75,1.75,0,0,1,1.76,1.75h0A1.76,1.76,0,0,1,105.13,162Z" fill="#2dc1bd"/><path d="M315.3,234.31c-17.83,16.15-49.25,10.52-49.25,10.52s-2.51-31.82,15.32-48,49.25-10.52,49.25-10.52S333.12,218.16,315.3,234.31Z" fill="#17a59e"/><g clip-path="url(#clip-path-3)"><line x1="264.41" y1="246.42" x2="332.37" y2="184.87" fill="none" stroke="#2dc1bd" stroke-miterlimit="10"/><line x1="277.15" y1="199.44" x2="279.39" y2="232.85" fill="none" stroke="#2dc1bd" stroke-miterlimit="10"/><line x1="300.79" y1="178.03" x2="303.03" y2="211.44" fill="none" stroke="#2dc1bd" stroke-miterlimit="10"/><line x1="291.84" y1="221.58" x2="326.14" y2="221.49" fill="none" stroke="#2dc1bd" stroke-miterlimit="10"/><line x1="307.61" y1="207.18" x2="330.79" y2="206.8" fill="none" stroke="#2dc1bd" stroke-miterlimit="10"/></g><line x1="208.21" y1="301.05" x2="208.21" y2="302.55" fill="none" stroke="#63bace" stroke-linecap="round" stroke-linejoin="round"/><path d="M208.21,305.05v4.68a15.59,15.59,0,0,1-15.58,15.58H166A9.31,9.31,0,0,1,156.7,316V305.38" fill="none" stroke="#63bace" stroke-linecap="round" stroke-linejoin="round" stroke-dasharray="2.99 2.49"/><line x1="156.7" y1="304.13" x2="156.7" y2="302.63" fill="none" stroke="#63bace" stroke-linecap="round" stroke-linejoin="round"/><line x1="115.19" y1="304.36" x2="115.19" y2="305.86" fill="none" stroke="#63bace" stroke-linecap="round" stroke-linejoin="round"/><path d="M115.19,308.35v13.39a18.16,18.16,0,0,0,18.16,18.16H190.9a27,27,0,0,0,27-27V291.55" fill="none" stroke="#63bace" stroke-linecap="round" stroke-linejoin="round" stroke-dasharray="2.99 2.49"/><line x1="217.87" y1="290.3" x2="217.87" y2="288.8" fill="none" stroke="#63bace" stroke-linecap="round" stroke-linejoin="round"/><line x1="129.28" y1="304.36" x2="129.28" y2="305.86" fill="none" stroke="#63bace" stroke-linecap="round" stroke-linejoin="round"/><path d="M129.28,308.28v13.46a18.16,18.16,0,0,0,18.16,18.16h20.75" fill="none" stroke="#63bace" stroke-linecap="round" stroke-linejoin="round" stroke-dasharray="2.91 2.42"/><line x1="169.4" y1="339.9" x2="170.9" y2="339.9" fill="none" stroke="#63bace" stroke-linecap="round" stroke-linejoin="round"/><line x1="142.87" y1="304.36" x2="142.87" y2="305.86" fill="none" stroke="#63bace" stroke-linecap="round" stroke-linejoin="round"/><path d="M142.87,308.35v13.39A18.16,18.16,0,0,0,161,339.9h22.52" fill="none" stroke="#63bace" stroke-linecap="round" stroke-linejoin="round" stroke-dasharray="2.99 2.49"/><line x1="184.79" y1="339.9" x2="186.29" y2="339.9" fill="none" stroke="#63bace" stroke-linecap="round" stroke-linejoin="round"/><polygon points="120.15 249.51 120.15 311.18 110.23 311.2 110.02 249.53 120.15 249.51" fill="#fdd247"/><polygon points="114.96 236.12 115.97 237.55 120.15 249.51 110.03 249.53 114 237.5 114.96 236.12" fill="#fcded6"/><polygon points="114.96 236.12 115.97 237.55 115.44 237.88 114.97 237.5 114.45 238.02 114 237.5 114.96 236.12" fill="#fdd247"/><polygon points="110.03 249.53 111.48 250.62 112.5 249.53 110.03 249.53" fill="#fcded6"/><polygon points="112.5 249.53 113.96 250.62 114.98 249.52 112.5 249.53" fill="#fcded6"/><polygon points="114.98 249.52 116.43 250.61 117.46 249.52 114.98 249.52" fill="#fcded6"/><polygon points="117.46 249.52 118.91 250.61 120.15 249.51 117.46 249.52" fill="#fcded6"/><polygon points="114.96 236.11 115.97 237.55 120.15 249.51 120.15 311.18 116.94 311.18 116.72 249.51 113.53 238.93 114 237.5 114.96 236.11" fill="#71606e" opacity="0.2" style="mix-blend-mode:multiply"/><rect x="110.23" y="310.52" width="9.92" height="1.82" fill="#167f7f"/><polygon points="134.06 249.51 134.06 311.18 124.14 311.2 123.92 249.53 134.06 249.51" fill="#fc9549"/><polygon points="128.87 236.12 129.88 237.55 134.06 249.51 123.93 249.53 127.9 237.5 128.87 236.12" fill="#fcded6"/><polygon points="128.87 236.12 129.88 237.55 129.35 237.88 128.87 237.5 128.36 238.02 127.9 237.5 128.87 236.12" fill="#fc9549"/><polygon points="123.93 249.53 125.38 250.62 126.41 249.53 123.93 249.53" fill="#fcded6"/><polygon points="126.41 249.53 127.86 250.62 128.89 249.52 126.41 249.53" fill="#fcded6"/><polygon points="128.89 249.52 130.34 250.61 131.37 249.52 128.89 249.52" fill="#fcded6"/><polygon points="131.37 249.52 132.82 250.61 134.06 249.51 131.37 249.52" fill="#fcded6"/><polygon points="128.87 236.11 129.88 237.55 134.06 249.51 134.06 311.18 130.84 311.18 130.63 249.51 127.43 238.93 127.9 237.5 128.87 236.11" fill="#71606e" opacity="0.2" style="mix-blend-mode:multiply"/><rect x="124.13" y="310.52" width="9.92" height="1.82" fill="#167f7f"/><polygon points="147.96 249.51 147.96 311.18 138.04 311.2 137.83 249.53 147.96 249.51" fill="#fc5e49"/><polygon points="142.78 236.12 143.79 237.55 147.96 249.51 137.84 249.53 141.81 237.5 142.78 236.12" fill="#fcded6"/><polygon points="142.78 236.12 143.79 237.55 143.25 237.88 142.78 237.5 142.27 238.02 141.81 237.5 142.78 236.12" fill="#fc5e49"/><polygon points="137.84 249.53 139.29 250.62 140.32 249.53 137.84 249.53" fill="#fcded6"/><polygon points="140.32 249.53 141.77 250.62 142.8 249.52 140.32 249.53" fill="#fcded6"/><polygon points="142.8 249.52 144.25 250.61 145.28 249.52 142.8 249.52" fill="#fcded6"/><polygon points="145.28 249.52 146.73 250.61 147.96 249.51 145.28 249.52" fill="#fcded6"/><polygon points="142.78 236.11 143.79 237.55 147.96 249.51 147.96 311.18 144.75 311.18 144.54 249.51 141.34 238.93 141.81 237.5 142.78 236.11" fill="#71606e" opacity="0.2" style="mix-blend-mode:multiply"/><rect x="138.04" y="310.52" width="9.92" height="1.82" fill="#167f7f"/><polygon points="161.87 249.51 161.87 311.18 151.95 311.2 151.74 249.53 161.87 249.51" fill="#2085b7"/><polygon points="156.68 236.12 157.69 237.55 161.87 249.51 151.75 249.53 155.72 237.5 156.68 236.12" fill="#fcded6"/><polygon points="156.68 236.12 157.69 237.55 157.16 237.88 156.69 237.5 156.17 238.02 155.72 237.5 156.68 236.12" fill="#2085b7"/><polygon points="151.75 249.53 153.2 250.62 154.22 249.53 151.75 249.53" fill="#fcded6"/><polygon points="154.22 249.53 155.68 250.62 156.7 249.52 154.22 249.53" fill="#fcded6"/><polygon points="156.7 249.52 158.15 250.61 159.18 249.52 156.7 249.52" fill="#fcded6"/><polygon points="159.18 249.52 160.63 250.61 161.87 249.51 159.18 249.52" fill="#fcded6"/><polygon points="156.68 236.11 157.69 237.55 161.87 249.51 161.87 311.18 158.66 311.18 158.44 249.51 155.25 238.93 155.72 237.5 156.68 236.11" fill="#71606e" opacity="0.2" style="mix-blend-mode:multiply"/><rect x="151.95" y="310.52" width="9.92" height="1.82" fill="#167f7f"/><path d="M390.1,332h62.74a5.72,5.72,0,0,1,5.72,5.72h0a5.72,5.72,0,0,1-5.72,5.72H255.32a18.79,18.79,0,0,1-18.79-18.79V302.34" fill="none" stroke="#63bace" stroke-linecap="round" stroke-linejoin="round" stroke-dasharray="3 2.5"/><path d="M224.53,305.16v37.92a19,19,0,0,1-19,19h-6.68" fill="none" stroke="#63bace" stroke-linecap="round" stroke-linejoin="round" stroke-dasharray="3 2.5"/><path d="M249.24,294.09v15.69a11.39,11.39,0,0,0,11.39,11.39h68.69" fill="none" stroke="#63bace" stroke-linecap="round" stroke-linejoin="round" stroke-dasharray="3 2.5"/><path d="M300.5,94c-16.29-20.17-40.52-34.48-67-34.94-15.29-.27-31.4,1.76-45,9A101.76,101.76,0,0,0,157.56,94c-14.59,18.07-23,41.64-20.48,64.74,2.11,19.28,11.64,37,24.23,51.44,12.28,14.11,30.18,25.76,33.25,45.7.87,5.7-1.22,13.57,3.12,18.12,5.17,5.42,13.56,3.53,20.18,3.48l23.61-.15c5.64,0,14.66,1.54,18.92-3.33,4.34-4.55,2.24-12.42,3.12-18.12,2.31-15,14-27.19,24.8-37,12.38-11.24,22.18-24.15,27.71-40.09C326.25,149.29,320,118.13,300.5,94Z" fill="#fdd247"/><path d="M224.12,294.69c0-2.55-.05-5-.14-7.55-.23-6.22-.48-12.43-.71-18.65q-.42-11.87-1.05-23.73c-.41-7.61-.84-15.21-1.45-22.8-.63-7.88-1.25-15.79-3.1-23.49a66.22,66.22,0,0,0-5.23-15.06,23,23,0,0,0-6.7-8.28,10.26,10.26,0,0,0-6.94-2,9.29,9.29,0,0,0-7.46,13.26,18.91,18.91,0,0,0,7.86,8.86,21.83,21.83,0,0,0,12.05,2.89A32.33,32.33,0,0,0,224,195.4c7.64-3.49,12.38-11.69,14.29-19.57a34.9,34.9,0,0,0,.87-12.13,9.35,9.35,0,0,0-4.79-6.95c-2.61-1.53-6-1.95-8.6-.12a10.48,10.48,0,0,0-4,7.72,30.85,30.85,0,0,0,.54,8.19A45.58,45.58,0,0,0,225,181.9c2.32,5.57,6.15,11.79,12.4,13.4a17.45,17.45,0,0,0,5.9.28,27.69,27.69,0,0,0,7.61-1.8,32.3,32.3,0,0,0,11.38-7.64,29.84,29.84,0,0,0,6.91-10.39c1.36-3.8,1.07-8.42-2.65-10.74a9.38,9.38,0,0,0-6.28-1.19,12.89,12.89,0,0,0-6.42,3.29,31,31,0,0,0-4.83,5.65,48.52,48.52,0,0,0-4,6.7c-4.62,9.41-6.24,19.74-6.75,30.11Q237.49,226.76,237,244c-.35,11-.61,22.07-.89,33.1-.14,5.71,0,11.43-.23,17.14,0,1,1.51,1,1.54,0,.18-5.67.61-11.34.79-17,.18-5.38.34-10.75.52-16.13.33-10.5.63-21,1-31.51q.33-8.34.73-16.69a126.17,126.17,0,0,1,1.37-15.42c1.64-9.48,5.11-19,11.45-26.4,2.71-3.15,6.62-6.12,11-4.58a5,5,0,0,1,3.29,3.64,8.9,8.9,0,0,1-.49,4.89,26.84,26.84,0,0,1-6.37,9.55A29.54,29.54,0,0,1,250,191.7a25.43,25.43,0,0,1-7,1.64,14.59,14.59,0,0,1-5.26-.31,13.24,13.24,0,0,1-6.34-4.53c-3.82-4.6-5.93-10.87-6.95-16.76a28.63,28.63,0,0,1-.43-7.49c0-.12,0-.24,0-.36a1.23,1.23,0,0,1,0-.15c0-.22.08-.44.13-.65a7.77,7.77,0,0,1,.45-1.44,6.86,6.86,0,0,1,2.9-3.49,5.08,5.08,0,0,1,3.31-.42,8.28,8.28,0,0,1,3.32,1.56,7.59,7.59,0,0,1,2.35,2.85,6.43,6.43,0,0,1,.39,1.39,25.43,25.43,0,0,1,.2,2.76c.22,7.72-2.23,16-7.34,21.89a20.45,20.45,0,0,1-9.19,6.2,32.46,32.46,0,0,1-12.34,1.45,18,18,0,0,1-10.42-4.27c-2.49-2.13-4.72-5.11-5.12-8.42a6.93,6.93,0,0,1,3.33-6.91,6.65,6.65,0,0,1,2.56-1l.17,0c.17,0-.18,0,0,0l.35,0c.26,0,.52,0,.78,0s.5,0,.74.06l.19,0,.42.09a8.6,8.6,0,0,1,3.08,1.38,15.14,15.14,0,0,1,3.07,2.83,33.86,33.86,0,0,1,5.73,10.85A90.35,90.35,0,0,1,216.84,205c.64,3.77,1,7.58,1.34,11.39.63,6.76,1.12,13.53,1.57,20.3.52,7.72.93,15.44,1.41,23.15q.63,10.25,1.14,20.49c.21,4.22.38,8.45.67,12.63l.12,1.72a.52.52,0,0,0,1,0Z" fill="#fff"/><rect x="201.83" y="277.19" width="53.34" height="5.26" fill="#17a59e"/><path d="M258.25,300.66a3.11,3.11,0,0,1,.1-4l.33-.36a3.09,3.09,0,0,0,.13-3.9l-.54-.68a3.09,3.09,0,0,1,.25-4,3.1,3.1,0,0,0,.29-4l-1.43-1.91a2.77,2.77,0,0,0-2.21-1.1h-53a2.77,2.77,0,0,0-2.21,1.1l-1.43,1.91a3.1,3.1,0,0,0,.29,4,3.09,3.09,0,0,1,.25,4l-.54.68a3.09,3.09,0,0,0,.13,3.9l.33.36a3.11,3.11,0,0,1,.1,4l-.42.5a3.09,3.09,0,0,0,.15,4l.22.22a5.71,5.71,0,0,0,4,1.75h51.2a5.71,5.71,0,0,0,4-1.75l.22-.22a3.09,3.09,0,0,0,.15-4Z" fill="#2dc1bd"/><line x1="230.87" y1="287.91" x2="255.58" y2="287.91" fill="none" stroke="#17a59e" stroke-linecap="round" stroke-linejoin="round"/><line x1="206.17" y1="287.91" x2="219.86" y2="287.91" fill="none" stroke="#17a59e" stroke-linecap="round" stroke-linejoin="round"/><line x1="202.59" y1="293.96" x2="238.39" y2="293.96" fill="none" stroke="#17a59e" stroke-linecap="round" stroke-linejoin="round"/><line x1="245.1" y1="293.96" x2="255.67" y2="293.96" fill="none" stroke="#17a59e" stroke-linecap="round" stroke-linejoin="round"/><line x1="206.17" y1="300.01" x2="225.32" y2="300.01" fill="none" stroke="#17a59e" stroke-linecap="round" stroke-linejoin="round"/><line x1="237.85" y1="300.01" x2="245.55" y2="300.01" fill="none" stroke="#17a59e" stroke-linecap="round" stroke-linejoin="round"/><line x1="223.3" y1="287.91" x2="226.07" y2="287.91" fill="none" stroke="#17a59e" stroke-linecap="round" stroke-linejoin="round"/><g opacity="0.2" style="mix-blend-mode:multiply"><path d="M300.5,94c-16.29-20.17-40.52-34.48-67-34.94-3-.05-6,0-9.11.14,42.33,2.59,79,39.37,77.61,83.64-1.17,37.21-19.34,63.74-56.91,80-7.86,3.41-13.51,8.6-14.76,17.61-1.15,8.33,1.48,16.76-.25,25.06a7,7,0,0,1-1.54,3.47,7.69,7.69,0,0,1-3.08,1.73,55.63,55.63,0,0,1-28.91,1.83,8.34,8.34,0,0,0,1.09,1.45c5.17,5.42,13.56,3.53,20.18,3.48l23.61-.15c5.64,0,14.66,1.54,18.92-3.33,4.34-4.55,2.24-12.42,3.12-18.12,2.31-15,14-27.19,24.8-37,12.38-11.24,22.18-24.15,27.71-40.09C326.25,149.29,320,118.13,300.5,94Z" fill="#ffb839"/></g><path d="M447.77,312.26s-8.22-5.83-14.86-6.78c-13.05-1.86-20.51,3.31-27.56-.65-2.92-1.64,4.33-2.76,5.09-4.59a24.49,24.49,0,0,0,0-2.8,4.51,4.51,0,0,1-3.44.13c-13.22-4.77-24.44-4.31-43.63-4.31-42.93,0-78.35,7.72-83.57,17.71h-.66v2.66h0c.25,11.14,37.86,20.15,84.22,20.15,44.75,0,83.9-8.59,84.35-19Zm-55.42,1.22c-6.08,0-11-1.78-11-4s4.92-4,11-4,11,1.77,11,4S398.42,313.48,392.35,313.48Z" fill="#2dc1bd"/><path d="M447.63,311.17c-1.11-4.44-8.08-7.09-14.72-8-13.05-1.87-20.51,3.3-27.56-.66-4.11-2.3,11.9-3.57,1.69-7.26-13.22-4.77-24.44-4.31-43.63-4.31-46.52,0-84.23,9.07-84.23,20.26s37.71,20.27,84.23,20.27S450.39,322.15,447.63,311.17Zm-55.28,0c-6.08,0-11-1.77-11-4s4.92-4,11-4,11,1.78,11,4S398.42,311.13,392.35,311.13Z" fill="#8fd8d3"/><path d="M325.65,313.37a4.93,4.93,0,0,0-1.39-1.52,15.06,15.06,0,0,0-4.24-2.34.78.78,0,0,0,.28-1,1.67,1.67,0,0,0-.89-.72,11.42,11.42,0,0,0-5.2-.51,77.32,77.32,0,0,0-10.52,1.07c-1.62.31-3.43.9-4.13,2.49a3.25,3.25,0,0,0-.18,2,5.06,5.06,0,0,1-1.29.38c-.43.13-.86.56-.74,1a1.07,1.07,0,0,0,.31.45c3.24,3.29,8,4.05,12.27,4.07a45.36,45.36,0,0,0,13.92-2,3,3,0,0,0,1.93-1.31A2.34,2.34,0,0,0,325.65,313.37Z" fill="#fc9549"/><path d="M358,302.26a5.13,5.13,0,0,0-1.4-1.53,14.78,14.78,0,0,0-4.24-2.33.78.78,0,0,0,.28-1,1.67,1.67,0,0,0-.89-.72,11.42,11.42,0,0,0-5.2-.51,77.31,77.31,0,0,0-10.52,1.06c-1.62.32-3.43.9-4.13,2.5a3.15,3.15,0,0,0-.17,2,4.52,4.52,0,0,1-1.3.38c-.43.14-.86.57-.73,1a1.05,1.05,0,0,0,.3.45c3.24,3.28,8,4.05,12.27,4.07a45.06,45.06,0,0,0,13.92-2,3,3,0,0,0,1.93-1.31A2.32,2.32,0,0,0,358,302.26Z" fill="#fc5e49"/><path d="M416.6,318.7a4.39,4.39,0,0,0-1.2-1.3,12.65,12.65,0,0,0-3.63-2,.66.66,0,0,0,.24-.89,1.41,1.41,0,0,0-.76-.62,9.88,9.88,0,0,0-4.46-.44,66.31,66.31,0,0,0-9,.92c-1.39.27-2.93.77-3.54,2.13a2.78,2.78,0,0,0-.15,1.73,3.68,3.68,0,0,1-1.1.32c-.37.12-.74.49-.63.88a.94.94,0,0,0,.25.39c2.78,2.81,6.84,3.47,10.51,3.48a38.55,38.55,0,0,0,11.92-1.71,2.56,2.56,0,0,0,1.65-1.13A2,2,0,0,0,416.6,318.7Z" fill="#2085b7"/><path d="M371.6,318.76a4.93,4.93,0,0,0-1.39-1.52A15.19,15.19,0,0,0,366,314.9a.77.77,0,0,0,.28-1,1.7,1.7,0,0,0-.9-.72,11.55,11.55,0,0,0-5.2-.51,79,79,0,0,0-10.52,1.07c-1.61.31-3.42.9-4.12,2.49a3.19,3.19,0,0,0-.18,2,5.06,5.06,0,0,1-1.29.38c-.43.14-.87.56-.74,1a1.19,1.19,0,0,0,.3.44c3.25,3.29,8,4.05,12.27,4.07a45,45,0,0,0,13.92-2,3,3,0,0,0,1.93-1.31A2.31,2.31,0,0,0,371.6,318.76Z" fill="#fdd247"/><path d="M115,367.92c0,2.23-15.34,4-34.27,4s-34.27-1.8-34.27-4,15.35-4,34.27-4S115,365.7,115,367.92Z" fill="#dae4e5"/><path d="M43.92,353.6c-3.39-6.67-4.3-14.73-1.31-21.74,1.74-4.06,4.17-8.06,7.7-10.8A29.36,29.36,0,0,1,60.77,316a25.84,25.84,0,0,1,19.45,2.24,27.63,27.63,0,0,1,10.69,12.45c2.27,4.89,3.22,11,8.11,14.14,1.4.9,3.72,1.27,4.4,2.95.82,2-.67,4-1.46,5.73l-2.82,6.19c-.67,1.49-1.33,4-3.11,4.59s-3.53-.87-5.14-1.31c-4.22-1.17-8.81.48-12.65,2.17a27.92,27.92,0,0,1-13.82,2.56A25.26,25.26,0,0,1,43.92,353.6Z" fill="#b3e5e1"/><path d="M102.34,355.46s-13.63-6.72-20.13-10.4A29.31,29.31,0,0,1,76.32,341c-1.53-1.36-4.62-4.57-2.63-6.69,2.34-2.5,5.09,1.59,5.07,3.86a8.68,8.68,0,0,1-3.18,5.74c-2.74,1.94-6.94,1.45-9.55-.16a2.18,2.18,0,0,1,1.34-4c2.12.14,8.06,4.59,6.69,8.17A8.06,8.06,0,0,1,70,352.16c-3.25,1.59-7.48-2.54-2.9-4,3.25-1,7.41.08,10.46,1.26,8.35,3.24,14.82,6,23.11,9.41" fill="none" stroke="#fff" stroke-miterlimit="10"/><rect x="93.63" y="355.79" width="15.39" height="1.52" transform="translate(468.15 409.81) rotate(114.12)" fill="#17a59e"/><path d="M103.3,366.84a.9.9,0,0,0-1-.44l-.14.05a.9.9,0,0,1-1-.43l-.12-.22a.88.88,0,0,0-1.08-.41.89.89,0,0,1-1.08-.39l-.33-.6a.81.81,0,0,1,0-.71l6.25-14a.79.79,0,0,1,.55-.45l.67-.15a.91.91,0,0,1,1,.54.87.87,0,0,0,1,.54l.25-.06a.9.9,0,0,1,1,.5l0,.13a.91.91,0,0,0,1,.49l.19,0a.89.89,0,0,1,1,.51l0,.08a1.64,1.64,0,0,1,0,1.27l-6,13.48a1.65,1.65,0,0,1-.94.85l-.08,0a.92.92,0,0,1-1.08-.44Z" fill="#2dc1bd"/><line x1="103.17" y1="358.13" x2="100.26" y2="364.63" fill="none" stroke="#17a59e" stroke-linecap="round" stroke-linejoin="round" stroke-width="0.5"/><line x1="106.08" y1="351.63" x2="104.47" y2="355.23" fill="none" stroke="#17a59e" stroke-linecap="round" stroke-linejoin="round" stroke-width="0.5"/><line x1="108.1" y1="351.4" x2="103.88" y2="360.82" fill="none" stroke="#17a59e" stroke-linecap="round" stroke-linejoin="round" stroke-width="0.5"/><line x1="103.09" y1="362.59" x2="101.84" y2="365.37" fill="none" stroke="#17a59e" stroke-linecap="round" stroke-linejoin="round" stroke-width="0.5"/><line x1="109.27" y1="353.06" x2="107.01" y2="358.1" fill="none" stroke="#17a59e" stroke-linecap="round" stroke-linejoin="round" stroke-width="0.5"/><line x1="105.53" y1="361.4" x2="104.63" y2="363.42" fill="none" stroke="#17a59e" stroke-linecap="round" stroke-linejoin="round" stroke-width="0.5"/><line x1="104.06" y1="356.14" x2="103.74" y2="356.87" fill="none" stroke="#17a59e" stroke-linecap="round" stroke-linejoin="round" stroke-width="0.5"/><g opacity="0.55" style="mix-blend-mode:multiply"><path d="M43.92,353.6c-3.39-6.67-4.3-14.73-1.31-21.74.34-.8.71-1.6,1.11-2.39-4.3,11.45,1.06,25.44,12.87,30.29,9.94,4.08,19.06,2.43,27.78-5.55,1.82-1.66,3.85-2.54,6.37-1.8,2.33.67,4.24,2.36,6.63,2.88a2,2,0,0,0,1.09,0,2.23,2.23,0,0,0,.82-.61,16,16,0,0,0,3.89-7.4,2.3,2.3,0,0,1,.25.46c.82,2-.67,4-1.46,5.73l-2.82,6.19c-.67,1.49-1.33,4-3.11,4.59s-3.53-.87-5.14-1.31c-4.22-1.17-8.81.48-12.65,2.17a27.92,27.92,0,0,1-13.82,2.56A25.26,25.26,0,0,1,43.92,353.6Z" fill="#b3e5e1"/></g><path d="M368.56,359.92c0,1.74-12.05,3.16-26.91,3.16s-26.91-1.42-26.91-3.16,12.05-3.16,26.91-3.16S368.56,358.17,368.56,359.92Z" fill="#dae4e5"/><path d="M369.13,350.56a19.25,19.25,0,0,0,1.3-16.11,19.82,19.82,0,0,0-5.54-8.12,21.72,21.72,0,0,0-7.68-3.93,19.17,19.17,0,0,0-14.47,1.36,20.49,20.49,0,0,0-8.11,9.07c-1.76,3.6-2.56,8.09-6.23,10.36-1,.65-2.78.89-3.31,2.13-.64,1.47.43,3,1,4.26l2,4.64c.48,1.11.92,3,2.24,3.45s2.63-.59,3.83-.89c3.15-.8,6.53.49,9.35,1.8a20.75,20.75,0,0,0,10.21,2.11A18.76,18.76,0,0,0,369.13,350.56Z" fill="#b3e5e1"/><path d="M325.77,351.05s10.21-4.78,15.09-7.41a21.65,21.65,0,0,0,4.45-2.93c3-2.55,2.74-4.51,1.5-5.25-1.55-.92-3.26.82-3.29,3.13a6.44,6.44,0,0,0,2.28,4.3c2,1.48,5.12,1.18,7.08,0,1-.58,1.31-3.1-.94-3-1.56.07-6,3.28-5.08,6a6,6,0,0,0,2.95,3.22,6.4,6.4,0,0,0,4,.5c2.29-.69-.16-3-1.4-3.33a13.52,13.52,0,0,0-8.21.67c-6.24,2.28-11.08,4.24-17.28,6.63" fill="none" stroke="#fff" stroke-miterlimit="10"/><rect x="320.81" y="351.31" width="11.41" height="1.13" transform="translate(523.24 -85.99) rotate(67.05)" fill="#17a59e"/><path d="M324.89,359.48a.67.67,0,0,1,.79-.32l.09,0a.66.66,0,0,0,.78-.3l.09-.16a.68.68,0,0,1,.82-.29.66.66,0,0,0,.8-.27l.26-.44a.62.62,0,0,0,0-.53l-4.42-10.44a.61.61,0,0,0-.4-.35l-.5-.12a.66.66,0,0,0-.75.39.67.67,0,0,1-.78.38l-.17-.05a.66.66,0,0,0-.76.36l0,.09a.66.66,0,0,1-.77.35l-.13,0a.66.66,0,0,0-.78.36l0,.06a1.25,1.25,0,0,0,0,.95l4.27,10.08a1.21,1.21,0,0,0,.68.65l.06,0a.67.67,0,0,0,.8-.31Z" fill="#2dc1bd"/><line x1="325.12" y1="353.02" x2="327.18" y2="357.89" fill="none" stroke="#17a59e" stroke-linecap="round" stroke-linejoin="round" stroke-width="0.5"/><line x1="323.06" y1="348.15" x2="324.2" y2="350.85" fill="none" stroke="#17a59e" stroke-linecap="round" stroke-linejoin="round" stroke-width="0.5"/><line x1="321.56" y1="347.95" x2="324.55" y2="355" fill="none" stroke="#17a59e" stroke-linecap="round" stroke-linejoin="round" stroke-width="0.5"/><line x1="325.11" y1="356.33" x2="325.99" y2="358.41" fill="none" stroke="#17a59e" stroke-linecap="round" stroke-linejoin="round" stroke-width="0.5"/><line x1="320.67" y1="349.16" x2="322.27" y2="352.93" fill="none" stroke="#17a59e" stroke-linecap="round" stroke-linejoin="round" stroke-width="0.5"/><line x1="323.31" y1="355.4" x2="323.96" y2="356.92" fill="none" stroke="#17a59e" stroke-linecap="round" stroke-linejoin="round" stroke-width="0.5"/><line x1="324.48" y1="351.52" x2="324.72" y2="352.07" fill="none" stroke="#17a59e" stroke-linecap="round" stroke-linejoin="round" stroke-width="0.5"/><g opacity="0.55" style="mix-blend-mode:multiply"><path d="M369.13,350.56a19.25,19.25,0,0,0,1.3-16.11c-.24-.59-.5-1.19-.79-1.78,3,8.56-1.17,18.85-10,22.27-7.43,2.87-14.18,1.51-20.52-4.54a4.69,4.69,0,0,0-4.7-1.44c-1.73.47-3.18,1.69-5,2a1.59,1.59,0,0,1-.81,0,1.69,1.69,0,0,1-.6-.47,11.83,11.83,0,0,1-2.77-5.54,2.27,2.27,0,0,0-.19.34c-.64,1.47.43,3,1,4.26l2,4.64c.48,1.11.92,3,2.24,3.45s2.63-.59,3.83-.89c3.15-.8,6.53.49,9.35,1.8a20.75,20.75,0,0,0,10.21,2.11A18.76,18.76,0,0,0,369.13,350.56Z" fill="#b3e5e1"/></g><path d="M167.8,110.81c-7.73,10.37-15.09,23.31-14.91,47" fill="none" stroke="#ffe1b0" stroke-linecap="round" stroke-linejoin="round" stroke-width="16" style="mix-blend-mode:screen"/><path d="M189,89a15.94,15.94,0,0,0-3.91,3.64" fill="none" stroke="#ffe1b0" stroke-linecap="round" stroke-linejoin="round" stroke-width="16" style="mix-blend-mode:screen"/><path d="M206.79,386.68c0,3.59-16,6.5-35.69,6.5s-35.69-2.91-35.69-6.5,16-6.5,35.69-6.5S206.79,383.09,206.79,386.68Z" fill="#dae4e5"/><path d="M194.66,371.7H163.49L179,366.63h31.6l-.11.33-15,4.61A3,3,0,0,1,194.66,371.7Z" fill="#0c877e"/><path d="M194.24,371.17H163.78L179,366.63h30.9L195.08,371A2.64,2.64,0,0,1,194.24,371.17Z" fill="#c5e6ef"/><path d="M191.76,370.4H171.54l10.13-3h20.5l-9.85,2.93A2.1,2.1,0,0,1,191.76,370.4Z" fill="#71c9c4" opacity="0.55" style="mix-blend-mode:multiply"/><path d="M210.64,366.63H179l4-17.48a1.5,1.5,0,0,1,1.44-1H213a1.37,1.37,0,0,1,1.42,1.72Z" fill="#0c877e"/><path d="M209.94,366.63H179l4-17.48a1.5,1.5,0,0,1,1.44-1h27.79a1.37,1.37,0,0,1,1.42,1.72Z" fill="#17a59e"/><path d="M208.57,365.54H180.69l3.59-16.26h27.88Z" fill="#c5e6ef"/><polyline points="205.61 362.44 205.39 363.41 204.39 363.41" fill="none" stroke="#95c6c6" stroke-linecap="round" stroke-linejoin="round" stroke-width="0.5"/><line x1="202.13" y1="363.41" x2="186.94" y2="363.41" fill="none" stroke-dasharray="1.81 2.27" stroke-linecap="round" stroke-linejoin="round" stroke-width="0.5" stroke="#95c6c6"/><polyline points="185.81 363.41 184.81 363.41 185.03 362.44" fill="none" stroke="#95c6c6" stroke-linecap="round" stroke-linejoin="round" stroke-width="0.5"/><path d="M185.59,359.88l1.87-8.48h18.28" fill="none" stroke="#95c6c6" stroke-linecap="round" stroke-linejoin="round" stroke-width="0.5" stroke-dasharray="2.09 2.62"/><polyline points="207.04 351.4 208.04 351.4 207.83 352.37" fill="none" stroke="#95c6c6" stroke-linecap="round" stroke-linejoin="round" stroke-width="0.5"/><line x1="207.35" y1="354.56" x2="205.85" y2="361.34" fill="none" stroke-dasharray="1.79 2.24" stroke-linecap="round" stroke-linejoin="round" stroke-width="0.5" stroke="#95c6c6"/><line x1="171.54" y1="369.58" x2="196.9" y2="369.58" fill="none" stroke="#c5e6ef" stroke-miterlimit="10" stroke-width="0.5"/><line x1="176.22" y1="368.28" x2="201.57" y2="368.28" fill="none" stroke="#c5e6ef" stroke-miterlimit="10" stroke-width="0.25"/><path d="M168.91,368c1.07-.87,2.93-1.08,4.29-1.27a22.78,22.78,0,0,1,4.13-.06c.79,0,.59,1-.1,1.07a8.11,8.11,0,0,1-2.36,0,3.75,3.75,0,0,1-2.07,1.38,8.56,8.56,0,0,1-2.52.24c-.24,0-.54-.07-.59-.3" fill="#f39f86"/><line x1="202.21" y1="357.48" x2="196.41" y2="351.68" fill="none" stroke="#fff" stroke-miterlimit="10" stroke-width="0.25"/><path d="M202.15,357.42a.28.28,0,1,1,0,.4A.28.28,0,0,1,202.15,357.42Z" fill="#fff"/><path d="M200,359.4a.28.28,0,1,1,0,.4A.28.28,0,0,1,200,359.4Z" fill="#fff"/><path d="M194,353.38a.27.27,0,0,1,.39,0,.27.27,0,0,1,0,.4.27.27,0,0,1-.39,0A.28.28,0,0,1,194,353.38Z" fill="#fff"/><path d="M196.21,351.48a.28.28,0,1,1,0,.4A.28.28,0,0,1,196.21,351.48Z" fill="#fff"/><path d="M194.16,353.58a4.55,4.55,0,0,1,6,6" fill="none" stroke="#fff" stroke-miterlimit="10" stroke-width="0.25"/><path d="M195.49,355.08l3.74-.58-2.88,3.11a.85.85,0,0,0-1.19,0,.84.84,0,0,0,0,1.19.85.85,0,0,0,1.2,0,.84.84,0,0,0,0-1.19h0l3-3s-.44,2.59-.59,3.87a47.17,47.17,0,0,0-4.54,2.77c-.15.11-1.71-1.51-1.65-1.59C193.58,358.44,195.49,355.08,195.49,355.08Z" fill="#fff"/><path d="M191.44,359.54l.63-.63a.32.32,0,0,1,.43,0l2.52,2.53a.3.3,0,0,1,0,.41h0l-.62.63a.3.3,0,0,1-.43,0L191.44,360A.32.32,0,0,1,191.44,359.54Z" fill="#fff"/><path d="M188.54,351.38a.9.9,0,1,1-.89-.9A.9.9,0,0,1,188.54,351.38Z" fill="#95c6c6"/><path d="M185.71,363.41a.9.9,0,1,1-.9-.89A.9.9,0,0,1,185.71,363.41Z" fill="#95c6c6"/><circle cx="205.25" cy="363.41" r="0.9" fill="#95c6c6"/><path d="M208.7,351.38a.9.9,0,1,1-.9-.9A.9.9,0,0,1,208.7,351.38Z" fill="#95c6c6"/><path d="M145.74,370.17c-.62,2.19-.48,3.95-.9,6.19-.62,3.34-.86,7.18,1.39,9.73a6.54,6.54,0,0,0,5.51,2.56c2.07,0,4.12-.33,6.19-.39,1.39,0,5.64.34,7,.39,6.2.25,9.7-1.12,15.83-1.88a144.87,144.87,0,0,0,16.11-3.23c15.86-4.34,10.12-10.74,6.61-11.76-.76-.22-4.22-1.38-4.22-1.38l-4.63,1.3H178.43a78.43,78.43,0,0,1-9.67-1" fill="#023d5f"/><path d="M192,361.42a7.89,7.89,0,0,1,1,.66,11.32,11.32,0,0,0,2.21,1.08l2.22.9a1.2,1.2,0,0,1,.44.25,1.26,1.26,0,0,1,.26.65,16.21,16.21,0,0,1,.3,7.21,9.6,9.6,0,0,1-1.3-2.6,2.79,2.79,0,0,0-.61-1.27,3.71,3.71,0,0,0-.71-.45,7.62,7.62,0,0,1-2-1.87,1.28,1.28,0,0,1-.32-.58,1,1,0,0,0,0-.25.5.5,0,0,0-.17-.15l-2.74-1.76" fill="#f39f86"/><path d="M148.43,370.17c-1.28-.94-2.67-2-4-3.1-3-2.53-5.7-5.28-6-7.28-.74-4.48-.17-17.8.19-24.09,0-.38,0-.73.06-1.07.35-5.94,3.55-8.57,5.15-9.53.81,7.72,2.65,25.15,2.8,26C146.81,352.3,148.43,370.17,148.43,370.17Z" fill="#2dc1bd"/><path d="M148.43,370.17c-1.28-.94-2.67-2-4-3.1-.11-4.91-1.9-3.85-4-12.43a57.31,57.31,0,0,1-.58-20.74l4.91.75c.82,7.64,1.7,15.89,1.8,16.5C146.81,352.3,148.43,370.17,148.43,370.17Z" fill="#17a59e"/><path d="M151.49,321.64a16.62,16.62,0,0,0,.59-6.19c-.46-2.63-2-7.36-1.45-10.91s5.06-6.5,9.79-6,6.11,5,6.9,7.62.66,6.64.46,8.8a6.1,6.1,0,0,1-2.17,4.34c-.79.46-3.75-.15-4.27.42s-.92,3.92-.92,3.92" fill="#f39f86"/><path d="M149.25,324.45a6,6,0,0,1,1.05-2.81c.79-.74,6-.74,7.62-.54a24.32,24.32,0,0,1,6,2.39c.52.39-.5,2.38-.5,2.38Z" fill="#2dc1bd"/><path d="M151.68,317.16s6.57.56,7.82,0a5,5,0,0,0,3.22-4c.17-2.23-.29-2.92.56-4.17s1.61-.82,1.74.36.18,3.32.49,3.48.92-1.3.76-3.58a14.2,14.2,0,0,0-1-4.83c-.59-1.31-.92-1.24-1.45-1.48a4,4,0,0,0,2.33-2.08c1.32-2.06.59-5.26-2.89-5.24-6.08,0-12.55,1.21-12.68,5.71,0,0-2.13-.33-2.2,3.78s2.56,9.07,2.76,10.35S151,316.86,151.68,317.16Z" fill="#023d5f"/><path d="M169.94,365.43c.25,2.06,2.05,5.25.82,5.69a22.7,22.7,0,0,1-5-.15h-.19c-2.18-.18-4.68-.42-6.77-.58-8.35-.36-12.62,1.31-13.45.84-.41-.25-.42-1-.29-1.72a19.41,19.41,0,0,0,.14-5.54c-.21-1.55-.5-3.4-.9-5.51-1.38-7.32-4.08-18.51-4.48-25.23-.65-10.54,10.64-9.54,10.64-9.54,14.36-.89,21.11,3.24,21.89,9.42.06.43.09.9.13,1.4.37,6.36-1.58,16.64-2.5,24.32A39.52,39.52,0,0,0,169.94,365.43Z" fill="#2dc1bd"/><path d="M169.94,365.43c.25,2.06,2.05,5.25.82,5.69a22.7,22.7,0,0,1-5-.15c2.21.16,2.63-1.54,2.13-2.67a16.4,16.4,0,0,1-1.42-6.81c.1-3.05,1.25-9.95,1.93-16.47a53.25,53.25,0,0,0,0-11.42c.35.69,1.33,1.66,4.11,2.3.06,6.4-1.68,15.78-2.54,22.92A39.52,39.52,0,0,0,169.94,365.43Z" fill="#17a59e"/><path d="M162.88,325.1s6.58-.53,9.48,1.9c2.31,1.94,6.76,26.51,6.76,26.51L173,356.06s-6.7-16.8-8.44-16.54" fill="#2dc1bd"/><path d="M172.73,355.45c2.09,6.61,19.14,9.11,19.14,9.11l.95-3s-10.42-7.76-14.17-8.81" fill="#2dc1bd"/><path d="M194.74,371.92c.78,0,1.55.09,2.33.15l1.16.1a3.72,3.72,0,0,0,1.1.08c.13,0,.1-.2,0-.24a1.78,1.78,0,0,0-.57-.07l-.53,0-1.16-.09-2.33-.14c-.15,0-.15.24,0,.25Z" fill="#062f44"/><path d="M190.76,384.71c-5.66-.28-11.24,1.07-16.84,1.89s-11.54,1.08-16.7-1.23a3.07,3.07,0,0,0-1.37-.38,3,3,0,0,0-1.42.7,8.13,8.13,0,0,1-3.06,1.48c-1.57.33-2-.06-3.62-.32a.66.66,0,0,0-.46,0s0,.06-.07.09a6.56,6.56,0,0,0,4.52,1.68c2.07,0,4.12-.33,6.19-.39,1.39,0,5.64.34,7,.39,6.2.25,9.7-1.12,15.83-1.88,2.54-.31,6.34-1,9.86-1.75A.89.89,0,0,0,190.76,384.71Z" fill="#062f44"/><path d="M350.28,159.49a9.14,9.14,0,0,0-2.74-1.28c-1.42-.4-.7-1.45-2.18-1.2-2.81.47-9.28,1.77-13.2,2.85l-.11,0c-2,.48-2.64,0-2.64,0l-.82.93.11.33a3.17,3.17,0,0,0-1.22,2.27c0,.21-.22,1-.31,1.78s-.08,1.44.23,1.71l0,0,.11,0a10.82,10.82,0,0,0,3.63.5c2.06.12,6.94-.5,11.42-1.1,2.79-.37,5.44-.74,7.15-.91a3,3,0,0,0,1.72-.79,2.68,2.68,0,0,0,.85-1.46C352.63,161.65,351.59,160.4,350.28,159.49Z" fill="#2dc1bd"/><path d="M331.71,165.2a3,3,0,0,1-.43.8,3.33,3.33,0,0,1-.25.28c-2.9,2.9-6.57,0-8.69-1.71-3-2.43-6.6-6.7-9.42-9.37-.09-.09-1.12-1-1-1.13l2.59-3.39s7,6.31,11.05,7.73a26.58,26.58,0,0,1,4.76,2,3.35,3.35,0,0,1,.44.29A4.93,4.93,0,0,1,331.71,165.2Z" fill="#2dc1bd"/><path d="M342.58,166.36c-4.48.6-9.36,1.22-11.42,1.1a10.82,10.82,0,0,1-3.63-.5l-.11,0,0,0c-2.69-1.14-4.34-3.67-.23-1.71a14.26,14.26,0,0,0,2.33.95,8.79,8.79,0,0,0,1.53.14h.23C335.06,166.26,346.16,157.94,342.58,166.36Z" fill="#17a59e"/><path d="M360.76,182.45a11.77,11.77,0,0,0-.53,6.77c1,4.49-.14,4.79-.14,4.79A57.45,57.45,0,0,1,349,199.44c-3.63,1.13-6.72.94-6.63-3.06v-.06c0-.24,0-.47,0-.7.17-9-1.71-9.45-2.17-19.52-.48-10.33-.37-16.45,2.94-18.12,3.6-1.81,8.56-3.06,15.59-1.4,5.29,1.25,7,2.65,7,6.56a31.81,31.81,0,0,1-.57,4.81A87,87,0,0,1,360.76,182.45Z" fill="#2dc1bd"/><path d="M360.76,182.45a11.77,11.77,0,0,0-.53,6.77c1,4.49-.14,4.79-.14,4.79A57.45,57.45,0,0,1,349,199.44l-4.73-.44-1.89-1.49v-1.19c0-.24,0-.47,0-.7a35.4,35.4,0,0,0,7.13-.18,29.68,29.68,0,0,0,7-1.76,2.72,2.72,0,0,0,1.72-3,39.13,39.13,0,0,1-.65-6.27,33.11,33.11,0,0,1,1.68-7.74,15.64,15.64,0,0,0,.63-5.73,50.39,50.39,0,0,1,0-6.52l3.75-2,2.09.78a31.81,31.81,0,0,1-.57,4.81A87,87,0,0,1,360.76,182.45Z" fill="#17a59e"/><path d="M344.75,141.38a8.89,8.89,0,0,1-2-6.3c.21-2.17.88-4.28,4.12-5.07,1.79-.43,4.32.91,6.13,2.93,5.66.48,7.5,4.37,7.72,8.79l-6.64-1.48Z" fill="#023d5f"/><path d="M359.52,144.21c-.13,5.07-4.5,8-4.5,8l.29,4.61-2.94,1.91-2,1.31-1.16-2.43-.16-3a1.53,1.53,0,0,0-1.21-1.41,5.57,5.57,0,0,1-2.88-1.74,2.13,2.13,0,0,1-.18-.22h0c-1.91-2.6-2.63-12.6,3.92-15.43C355.43,132.89,359.65,139.14,359.52,144.21Z" fill="#f39f86"/><path d="M348,160.32s-2.89,18-1.8,26.58l2,3.67,2.21-4s-2.11-15-.95-25.93Z" fill="#16405a"/><path d="M347.62,158.79l0,.24a4.49,4.49,0,0,0,.35,1.29h0l1.48.31,1.29-1-1.48-1.72-.23.06a3.24,3.24,0,0,0-1.42.77Z" fill="#103649"/><path d="M355.28,154.67a4.79,4.79,0,0,1,1.42,1.46,18.08,18.08,0,0,0-1.82,1c-.78.47-4.5,3.1-4.5,3.1l-1.09-2.25S353.17,155.26,355.28,154.67Z" fill="#17a59e"/><path d="M349.29,157.94a3.13,3.13,0,0,0-1.7,1.42,4.59,4.59,0,0,1,.18-3.55,6,6,0,0,1,1.27-.91Z" fill="#17a59e"/><g opacity="0.5"><path d="M328.22,282.18c0,2.12,13,3.85,29,3.85s29-1.73,29-3.85-13-3.85-29-3.85S328.22,280.05,328.22,282.18Z" fill="#dae4e5"/></g><path d="M343.5,277.12a6.61,6.61,0,0,0-.45,2.19c.06.86,2.83.93,3.15.48s.49-4.44.49-4.44" fill="#f39f86"/><path d="M346.93,280.55a18.73,18.73,0,0,1-.25,2.39h-3.19l-.15-.54a5,5,0,0,1-1.85.54H338.8c-2,0-3.09-.26-3.14-.6-.21-1.45,2.15-1.38,2.76-1.38,1.76,0,3.66-.83,4.08-1.72.3-.65.17-.81.53-.69a.91.91,0,0,1,.55.47,1.62,1.62,0,0,0,1.66.91,2,2,0,0,0,1.08-.52A1.15,1.15,0,0,1,346.93,280.55Z" fill="#3a3a3a"/><path d="M374.52,274.11a25.32,25.32,0,0,0,1,3.12c.38.78,3-.18,3.1-.72s-1.19-4.3-1.19-4.3" fill="#f39f86"/><path d="M379.57,277c.33.84.83,2.47.83,2.47L378,280.86l-.47-.36a4.79,4.79,0,0,1-1.27,1.33,10.5,10.5,0,0,1-2.4,1c-2.21.5-3.91.26-4.09-.05-.73-1.27,2.2-2,2.77-2.19a4,4,0,0,0,2.44-3.22c0-.71-.15-.82.24-.84a.88.88,0,0,1,.68.24,1.62,1.62,0,0,0,1.88.22,2,2,0,0,0,.81-.88A1.17,1.17,0,0,1,379.57,277Z" fill="#3a3a3a"/><path d="M363.32,211.92s4.33-10.38-3.23-17.91c0,0-6.45,2.88-11.61,3.23a25,25,0,0,1-6.13-.15,130.84,130.84,0,0,0-.41,19.4Z" fill="#023d5f"/><path d="M347.06,278.12h-.38a21.6,21.6,0,0,1-4.22-.29v-.78c.15-11.87-1.29-31.29-1.57-37.42a6.43,6.43,0,0,1,0-1.18c.47-4.49,5.11-3.9,7.06.22a16.52,16.52,0,0,1,1.1,3.18,28.35,28.35,0,0,1,.72,4.48C350.72,256.59,347.86,270.46,347.06,278.12Z" fill="#023d5f"/><path d="M355.11,216.7a3.24,3.24,0,0,1-.07.39c-1,5.4-4.36,20-6,24.76h0a2.86,2.86,0,0,1-2,1.49c-2.34.64-5.82-.23-6.12-4.89a10.59,10.59,0,0,1,0-1.68c.31-3.78,1.14-24.68,1.31-26.7s.52-5,1.58-5.33C349.16,202.91,356.51,209.14,355.11,216.7Z" fill="#023d5f"/><path d="M350.15,238.22c1.71-6.33,4.06-16.75,4.89-21.13l-1.13-5-5.44-6.52-3-.42s.49,9.85,4,17.68c0,0,0,11.11-1.49,15.87l-1.31,3.66s.15.36.37,1a33.48,33.48,0,0,1,1.38,14.24c-1.09,8.41-1.75,20.54-1.75,20.54h.38c.77-7.4,3.45-20.58,2.82-30.71a4.26,4.26,0,0,0-.07-1.07,25.85,25.85,0,0,1,.35-8.12Z" fill="#062f44"/><path d="M365.7,238.38c-3.6-3.38-8.6-1.78-6.26,3.47,2.49,5.62,10.22,21.2,14.41,32.32l.29.72a22.84,22.84,0,0,0,4.39-1.42c-2-7.21-3.45-19.65-7.59-28.31A23.62,23.62,0,0,0,365.7,238.38Z" fill="#023d5f"/><path d="M345.44,205.14c-.7-8.36,9.71-2.81,14.7,0,2.1,1.16,2.87,3.48,3.16,5.67s3,24.7,3.52,28.8c1.22,9.26-6.87,4.2-7.63,1.63C357.26,234.72,345.82,209.69,345.44,205.14Z" fill="#023d5f"/><path d="M366.1,233.82s.33,4.44,4,9.9c0,0-6.09-2.81-6.38-3.23a22.43,22.43,0,0,1-1.24-5.16C362.65,234.88,366.1,233.82,366.1,233.82Z" fill="#023d5f"/><path d="M294.89,131c4.67-2.84,6-5.58,6-5.58a11,11,0,0,0,.11-1.76c0-2.2-.71-5.87-4.54-7.28-5.65-2.08-9.3,1.75-13.2-5,0,0,0,0,0,.1C284.3,117.82,283.31,131.09,294.89,131Z" fill="#fff"/><path d="M294.89,131c4.67-2.84,6-5.58,6-5.58a11,11,0,0,0,.11-1.76c-13,12.28-17.41-10.47-17.72-12.2C284.3,117.82,283.31,131.09,294.89,131Z" fill="#ffe7c5" style="mix-blend-mode:multiply"/><g style="mix-blend-mode:multiply"><path d="M283.3,111.5l.11.26c.07.17.18.42.34.72a11.15,11.15,0,0,0,1.56,2.33,12,12,0,0,0,3,2.54,8.15,8.15,0,0,0,2,.82,18.21,18.21,0,0,0,2.27.39,16.83,16.83,0,0,1,2.32.41,6.23,6.23,0,0,1,2.13,1,5.84,5.84,0,0,1,2.27,3.37,5.69,5.69,0,0,1,.17,1.63,6.56,6.56,0,0,1-.18,1.24,4.18,4.18,0,0,1-.23.76l-.09.27.06-.28a7.25,7.25,0,0,0,.14-.78,6.34,6.34,0,0,0,.06-1.21,6.41,6.41,0,0,0-.27-1.53,5.79,5.79,0,0,0-4.2-3.92c-.73-.17-1.49-.28-2.26-.4a16.67,16.67,0,0,1-2.32-.45,7.16,7.16,0,0,1-2.12-1,11.89,11.89,0,0,1-3-2.74,11,11,0,0,1-1.43-2.46c-.14-.32-.22-.57-.28-.75Z" fill="#ffe7c5"/></g><g style="mix-blend-mode:multiply"><path d="M283.3,111.5a17.65,17.65,0,0,0,1.24,3.43,15.36,15.36,0,0,0,1.92,3.16,12.13,12.13,0,0,0,3.06,2.86,14.13,14.13,0,0,0,1.89,1,20,20,0,0,1,1.91,1,8.47,8.47,0,0,1,2.85,2.54,5.31,5.31,0,0,1,.92,2.52,3.55,3.55,0,0,1,0,.75V129l0-.26A6.71,6.71,0,0,0,297,128a6,6,0,0,0-1.09-2.33,9.31,9.31,0,0,0-2.82-2.29,20.72,20.72,0,0,0-1.89-.9,10.88,10.88,0,0,1-2-1,12.51,12.51,0,0,1-3.15-3,16,16,0,0,1-1.8-3.33A14.94,14.94,0,0,1,283.3,111.5Z" fill="#ffe7c5"/></g><path d="M370.29,214.54a3,3,0,0,1-.87-.19c-3.36-1.31-4.24-8.87-4.33-9.73l-.1-1,.94.3c.82.27,8.1,2.7,8.79,6.13a3.21,3.21,0,0,1-1.35,3.12A4.4,4.4,0,0,1,370.29,214.54Zm-3.79-9c.39,2.53,1.45,6.9,3.38,7.65.74.29,1.63,0,2.65-.92a2,2,0,0,0,.93-1.91C373.07,208.34,368.93,206.41,366.5,205.5Z" fill="#17a59e"/><rect x="328.76" y="117.72" width="8.21" height="100.19" transform="translate(-27.58 262.9) rotate(-41.53)" fill="#ffc25b"/><rect x="294.64" y="127.78" width="8.21" height="2.86" transform="translate(-10.57 230.56) rotate(-41.53)" fill="#ffa92c"/><rect x="328.76" y="117.72" width="8.21" height="100.19" transform="translate(-27.58 262.9) rotate(-41.53)" fill="#fc9549"/><rect x="294.64" y="127.78" width="8.21" height="2.86" transform="translate(-10.57 230.56) rotate(-41.53)" fill="#0b0b3a"/><polygon points="365.29 205.98 362.96 208.04 296.62 132.99 294.72 130.85 297.04 128.78 298.94 130.92 365.29 205.98" fill="#71606e" opacity="0.2" style="mix-blend-mode:multiply"/><rect x="361.41" y="203.94" width="8.21" height="1.6" transform="translate(-43.86 293.83) rotate(-41.53)" fill="#17a59e"/><path d="M357.2,196.89,355,195.1s-.81,1.06-1.22,1.19c-.11,0-.34-.06-.45-.06a3.76,3.76,0,0,0-1.74.54c-.51.23-1.18.45-1.21.65s.33.52.68.5l.18,0a.63.63,0,0,0,0,.21c.14.46,2.26,3.42,4.37.2A6.17,6.17,0,0,1,357.2,196.89Z" fill="#f39f86"/><path d="M359.14,168.39c1,3,2,7.62,3.92,11.57l.12.25,0,0a3.68,3.68,0,0,0,.14.43,3.55,3.55,0,0,0,3.45,2.37l.74,0a13.62,13.62,0,0,0,1.43,0c.6,0,1.13-.16,1.3-.46h0a1.68,1.68,0,0,0,.07-.3.76.76,0,0,0,0-.16s0-.12,0-.18,0-.33,0-.49a2.18,2.18,0,0,0,0-.25,17.16,17.16,0,0,0-.2-2.42c-.31-3.32-3.59-13.72-4.71-18.06a2.93,2.93,0,0,0-1-1.6,2.64,2.64,0,0,0-1.56-.62h-.27c-1.45,0-2.45,1.19-3.12,2.56a8.7,8.7,0,0,0-.86,2.88A10.21,10.21,0,0,0,359.14,168.39Z" fill="#2dc1bd"/><path d="M354.15,195.66,356,197.3h0l.48.41s3.68-3.2,6.55-5.9a32.56,32.56,0,0,0,7-8.69c.09-.16.17-.33.24-.49v0a1.68,1.68,0,0,0,.07-.3.76.76,0,0,0,0-.16s0-.12,0-.18,0-.33,0-.49a2.18,2.18,0,0,0,0-.25,3.05,3.05,0,0,0-.67-1.94,1.07,1.07,0,0,1-.14-.16,2.9,2.9,0,0,0-.72-.52,2.5,2.5,0,0,0-.54-.23,5.14,5.14,0,0,0-4.11.56l-.35.37c-.24.27-.5.57-.76.89a15.1,15.1,0,0,0-2,3.31C359.44,187.58,354.15,195.66,354.15,195.66Z" fill="#2dc1bd"/><path d="M343.94,138s4.35-.86,7.69.93a6.15,6.15,0,0,0,5.54.18l1.25-.59s-1.24-1.44-1.43-1.56a11.11,11.11,0,0,0-1.9-1.62c-.65-.27-3.37-1.15-3.72-1.2a7.35,7.35,0,0,0-2.18,0,5.47,5.47,0,0,0-1.71.58c-.44.21-1.7,1-1.7,1Z" fill="#023d5f"/><path d="M312.55,153.24s-3.13-2.73-3.29-4.64c-.18-2.11,1.31-3.13,2.28-2,1.54,1.83,1.26,4.83,1.26,4.83l.58.68Z" fill="#f39f86"/><path d="M356,197.3h0l.48.41s3.68-3.2,6.55-5.9a32.56,32.56,0,0,0,7-8.69c.09-.16.17-.33.24-.49v0a1.68,1.68,0,0,0,.07-.3.76.76,0,0,0,0-.16s0-.12,0-.18,0-.33,0-.49a2.18,2.18,0,0,0,0-.25,17.16,17.16,0,0,0-.2-2.42c-.31-3.32-3.59-13.72-4.71-18.06a2.93,2.93,0,0,0-1-1.6,2.64,2.64,0,0,0-1.56-.62h-.27c.7,1.12,1.68,3.37,2.78,7.88,1.47,6,2.5,9.65,2.91,12a4.79,4.79,0,0,1-.86,4.7C365,187.28,358.59,195.5,356,197.3Z" fill="#17a59e"/><path d="M355,152.21a16.7,16.7,0,0,1-.47-3.75s2.15-1.52,2.15-3.07c0-2.15-2.4,0-2.4,0a15.12,15.12,0,0,1-.61-3c-.2-2.42,3.87-4.19,3.87-4.19l2.13,1.55,1,2S360.8,150.16,355,152.21Z" fill="#023d5f"/><path d="M279.59,211.06l-26.23,15.11a.73.73,0,0,1-1-.27l-2.08-3.61a.72.72,0,0,1,.27-1l26.23-15.12a.74.74,0,0,1,1,.27l2.08,3.62A.72.72,0,0,1,279.59,211.06Z" fill="#8fd8d3"/><g opacity="0.55"><g style="mix-blend-mode:screen"><path d="M276.2,208A.13.13,0,0,1,276,208l-.58-1,.22-.13.58,1A.13.13,0,0,1,276.2,208Z" fill="#afd4dd"/><path d="M275.4,207.62a.05.05,0,0,1-.08,0l-.25-.43.11-.07.25.44A.07.07,0,0,1,275.4,207.62Z" fill="#afd4dd"/></g><g style="mix-blend-mode:screen"><path d="M275.28,208.53a.13.13,0,0,1-.17-.05l-.58-1,.22-.13.58,1A.13.13,0,0,1,275.28,208.53Z" fill="#afd4dd"/><path d="M274.48,208.15a.05.05,0,0,1-.08,0l-.25-.43.11-.06.25.43A.06.06,0,0,1,274.48,208.15Z" fill="#afd4dd"/></g><g style="mix-blend-mode:screen"><path d="M274.36,209.06a.13.13,0,0,1-.17-.05l-.58-1,.22-.13.58,1A.13.13,0,0,1,274.36,209.06Z" fill="#afd4dd"/><path d="M273.56,208.68a.05.05,0,0,1-.08,0l-.25-.43.11-.06.25.43A.06.06,0,0,1,273.56,208.68Z" fill="#afd4dd"/></g><g style="mix-blend-mode:screen"><path d="M273.44,209.59a.13.13,0,0,1-.17-.05l-.58-1,.22-.13.58,1A.13.13,0,0,1,273.44,209.59Z" fill="#afd4dd"/><path d="M272.64,209.21a.05.05,0,0,1-.08,0l-.25-.43.11-.06.25.43A.06.06,0,0,1,272.64,209.21Z" fill="#afd4dd"/></g><g style="mix-blend-mode:screen"><path d="M272.52,210.12a.13.13,0,0,1-.17-.05l-.58-1,.22-.13.58,1A.13.13,0,0,1,272.52,210.12Z" fill="#afd4dd"/><path d="M271.72,209.74a.05.05,0,0,1-.08,0l-.25-.43.11-.06.25.43A.07.07,0,0,1,271.72,209.74Z" fill="#afd4dd"/></g><g style="mix-blend-mode:screen"><path d="M271.6,210.65a.13.13,0,0,1-.17-.05l-.58-1,.22-.13.58,1A.13.13,0,0,1,271.6,210.65Z" fill="#afd4dd"/><path d="M270.8,210.27a.05.05,0,0,1-.08,0l-.25-.43.1-.06.25.43A.05.05,0,0,1,270.8,210.27Z" fill="#afd4dd"/></g><g style="mix-blend-mode:screen"><path d="M270.68,211.18a.13.13,0,0,1-.17,0l-.58-1,.22-.13.58,1A.13.13,0,0,1,270.68,211.18Z" fill="#afd4dd"/><path d="M269.88,210.8a.05.05,0,0,1-.08,0l-.25-.43.1-.06.25.43A.05.05,0,0,1,269.88,210.8Z" fill="#afd4dd"/></g><g style="mix-blend-mode:screen"><path d="M269.76,211.71a.12.12,0,0,1-.17,0l-.58-1,.21-.13.58,1A.12.12,0,0,1,269.76,211.71Z" fill="#afd4dd"/><path d="M269,211.33a.05.05,0,0,1-.08,0l-.25-.43.1-.06.25.43A.05.05,0,0,1,269,211.33Z" fill="#afd4dd"/></g><g style="mix-blend-mode:screen"><path d="M268.84,212.24a.13.13,0,0,1-.17,0l-.58-1,.21-.13.59,1A.13.13,0,0,1,268.84,212.24Z" fill="#afd4dd"/><path d="M268,211.86a.05.05,0,0,1-.08,0l-.25-.43.11-.06.25.43A.06.06,0,0,1,268,211.86Z" fill="#afd4dd"/></g><g style="mix-blend-mode:screen"><path d="M267.92,212.77a.13.13,0,0,1-.17-.05l-.58-1,.22-.13.58,1A.13.13,0,0,1,267.92,212.77Z" fill="#afd4dd"/><path d="M267.12,212.39a.07.07,0,0,1-.09,0l-.25-.43.11-.06.25.43A.05.05,0,0,1,267.12,212.39Z" fill="#afd4dd"/></g><g style="mix-blend-mode:screen"><path d="M267,213.3a.13.13,0,0,1-.17,0l-.58-1,.22-.13.58,1A.13.13,0,0,1,267,213.3Z" fill="#afd4dd"/><path d="M266.2,212.92a.05.05,0,0,1-.08,0l-.25-.43.1-.06.25.43A.05.05,0,0,1,266.2,212.92Z" fill="#afd4dd"/></g><g style="mix-blend-mode:screen"><path d="M266.08,213.83a.12.12,0,0,1-.17,0l-.58-1,.21-.12.58,1A.12.12,0,0,1,266.08,213.83Z" fill="#afd4dd"/><path d="M265.28,213.46a.06.06,0,0,1-.08,0L265,213l.1-.06.25.43A.07.07,0,0,1,265.28,213.46Z" fill="#afd4dd"/></g><g style="mix-blend-mode:screen"><path d="M265.16,214.36a.12.12,0,0,1-.17,0l-.58-1,.21-.12.58,1A.12.12,0,0,1,265.16,214.36Z" fill="#afd4dd"/><path d="M264.36,214a.05.05,0,0,1-.08,0l-.25-.43.1-.06.25.43A.05.05,0,0,1,264.36,214Z" fill="#afd4dd"/></g><g style="mix-blend-mode:screen"><path d="M264.24,214.89a.12.12,0,0,1-.17,0l-.58-1,.21-.13.58,1A.12.12,0,0,1,264.24,214.89Z" fill="#afd4dd"/><path d="M263.44,214.51a.07.07,0,0,1-.09,0l-.25-.43.11-.06.25.43A.05.05,0,0,1,263.44,214.51Z" fill="#afd4dd"/></g><g style="mix-blend-mode:screen"><path d="M263.32,215.42a.12.12,0,0,1-.17,0l-.58-1,.21-.13.58,1A.13.13,0,0,1,263.32,215.42Z" fill="#afd4dd"/><path d="M262.52,215a.07.07,0,0,1-.09,0l-.25-.43.11-.06.25.43A.05.05,0,0,1,262.52,215Z" fill="#afd4dd"/></g><g style="mix-blend-mode:screen"><path d="M262.4,216a.12.12,0,0,1-.17,0l-.58-1,.21-.12.58,1A.12.12,0,0,1,262.4,216Z" fill="#afd4dd"/><path d="M261.6,215.58a.08.08,0,0,1-.09,0l-.25-.43.11-.06.25.43A.07.07,0,0,1,261.6,215.58Z" fill="#afd4dd"/></g><g style="mix-blend-mode:screen"><path d="M261.48,216.48a.12.12,0,0,1-.17,0l-.58-1,.21-.12.58,1A.12.12,0,0,1,261.48,216.48Z" fill="#afd4dd"/><path d="M260.68,216.11a.08.08,0,0,1-.09,0l-.25-.43.11-.06.25.43A.07.07,0,0,1,260.68,216.11Z" fill="#afd4dd"/></g><g style="mix-blend-mode:screen"><path d="M260.56,217a.12.12,0,0,1-.17,0l-.58-1,.21-.12.58,1A.12.12,0,0,1,260.56,217Z" fill="#afd4dd"/><path d="M259.76,216.64a.1.1,0,0,1-.09,0l-.25-.44.11-.06.25.43A.1.1,0,0,1,259.76,216.64Z" fill="#afd4dd"/></g><g style="mix-blend-mode:screen"><path d="M259.64,217.54a.13.13,0,0,1-.18,0l-.58-1,.22-.12.58,1A.13.13,0,0,1,259.64,217.54Z" fill="#afd4dd"/><path d="M258.84,217.17a.1.1,0,0,1-.09,0l-.25-.44.11-.06.25.43A.07.07,0,0,1,258.84,217.17Z" fill="#afd4dd"/></g><g style="mix-blend-mode:screen"><path d="M258.71,218.07a.12.12,0,0,1-.17,0l-.58-1,.22-.12.58,1A.13.13,0,0,1,258.71,218.07Z" fill="#afd4dd"/><path d="M257.91,217.7a.08.08,0,0,1-.08,0l-.25-.44.11-.06.25.43A.06.06,0,0,1,257.91,217.7Z" fill="#afd4dd"/></g><g style="mix-blend-mode:screen"><path d="M257.79,218.6a.11.11,0,0,1-.16,0l-.58-1,.21-.12.58,1A.13.13,0,0,1,257.79,218.6Z" fill="#afd4dd"/><path d="M257,218.23a.07.07,0,0,1-.08,0l-.25-.43.11-.06.25.43A.06.06,0,0,1,257,218.23Z" fill="#afd4dd"/></g><g style="mix-blend-mode:screen"><path d="M256.88,219.13a.12.12,0,0,1-.17,0l-.58-1,.21-.12.58,1A.12.12,0,0,1,256.88,219.13Z" fill="#afd4dd"/><path d="M256.08,218.76a.09.09,0,0,1-.09,0l-.25-.44.11-.06.25.43A.1.1,0,0,1,256.08,218.76Z" fill="#afd4dd"/></g><g style="mix-blend-mode:screen"><path d="M256,219.66a.13.13,0,0,1-.18,0l-.58-1,.22-.12.58,1A.13.13,0,0,1,256,219.66Z" fill="#afd4dd"/><path d="M255.16,219.29a.09.09,0,0,1-.09,0l-.25-.44.11-.06.25.43A.1.1,0,0,1,255.16,219.29Z" fill="#afd4dd"/></g><g style="mix-blend-mode:screen"><path d="M255,220.19a.12.12,0,0,1-.17,0l-.58-1,.22-.12.58,1A.12.12,0,0,1,255,220.19Z" fill="#afd4dd"/><path d="M254.23,219.82a.08.08,0,0,1-.08,0l-.25-.44.11-.06.25.43A.08.08,0,0,1,254.23,219.82Z" fill="#afd4dd"/></g><g style="mix-blend-mode:screen"><path d="M254.11,220.72a.12.12,0,0,1-.17,0l-.58-1,.22-.12.58,1A.13.13,0,0,1,254.11,220.72Z" fill="#afd4dd"/><path d="M253.31,220.35a.08.08,0,0,1-.08,0l-.25-.44.11-.06.25.43A.06.06,0,0,1,253.31,220.35Z" fill="#afd4dd"/></g><g style="mix-blend-mode:screen"><path d="M253.19,221.25a.12.12,0,0,1-.17,0l-.58-1,.22-.12.58,1A.13.13,0,0,1,253.19,221.25Z" fill="#afd4dd"/><path d="M252.39,220.88a.05.05,0,0,1-.08,0l-.25-.44.11-.06.25.44A.07.07,0,0,1,252.39,220.88Z" fill="#afd4dd"/></g></g><path d="M324.72,367.66c0,2.13-11.49,3.86-25.66,3.86s-25.65-1.73-25.65-3.86,11.48-3.86,25.65-3.86S324.72,365.53,324.72,367.66Z" fill="#dae4e5"/><path d="M305.69,359.47s.09,3.53.15,4.43,2.94,1,3.27.5.5-4.6.5-4.6" fill="#f39f86"/><path d="M309.87,365.2a19.25,19.25,0,0,1-.26,2.46H306.3l-.16-.55a5.19,5.19,0,0,1-1.91.55h-2.79c-2,0-3.2-.26-3.25-.62-.22-1.5,2.22-1.43,2.86-1.43,1.82,0,3.79-.85,4.22-1.78.32-.67.18-.84.55-.71a.94.94,0,0,1,.57.49,1.67,1.67,0,0,0,1.72.93,2,2,0,0,0,1.12-.53A1.2,1.2,0,0,1,309.87,365.2Z" fill="#3a3a3a"/><path d="M294.1,358.52a27.57,27.57,0,0,0,1,3.23c.4.81,3.09-.19,3.22-.74s-1.24-4.46-1.24-4.46" fill="#f39f86"/><path d="M299.32,361.46c.35.87.86,2.56.86,2.56l-2.5,1.5-.49-.38a4.82,4.82,0,0,1-1.32,1.38,10.56,10.56,0,0,1-2.48,1c-2.28.52-4.05.27-4.23-.05-.76-1.31,2.27-2,2.86-2.27a4.07,4.07,0,0,0,2.53-3.33c0-.74-.15-.85.25-.87a.92.92,0,0,1,.7.24,1.67,1.67,0,0,0,1.95.24,2,2,0,0,0,.84-.92A1.21,1.21,0,0,1,299.32,361.46Z" fill="#3a3a3a"/><path d="M311.74,278.32c1.18-.88,2.48-1.86,3.71-2.89,2.8-2.35,5.3-4.9,5.61-6.76.68-4.17.15-16.57-.18-22.41,0-.36,0-.69-.06-1-.33-5.53-3.3-8-4.79-8.87-.75,7.18-2.47,23.4-2.6,24.24C313.24,261.69,311.74,278.32,311.74,278.32Z" fill="#c5e6ef"/><path d="M311.73,278.32c1.19-.88,2.48-1.86,3.71-2.89.11-4.57,1.47-10.95,3.38-18.93,2.27-10.07.85-11.92.85-11.92l-4.57.69c-.76,7.11-1.58,14.79-1.68,15.36C313.24,261.69,311.73,278.32,311.73,278.32Z" fill="#afd4dd"/><path d="M300.76,316.14a109.85,109.85,0,0,0,1.42,14.05c.61,3.12,10.4,3.69,9.14,1.29-1.82-3.49,1.35-14.42,2.91-33.06.22-2.82,1.49-3.14,2.33-8.95a17.77,17.77,0,0,0-2.36-10.84l-13.59-1.27-.18,16.93-.05,5.72S300.35,307.87,300.76,316.14Z" fill="#023d5f"/><path d="M310.12,329.3s2.66,3.26,2.29,9.23-2.45,23.8-2.45,23.8-3.12.46-4.73-.13c0,0-3.36-33.07-3.37-36.82S310.12,329.3,310.12,329.3Z" fill="#023d5f"/><path d="M300.76,316.14a104.68,104.68,0,0,1,3.95-11,21.19,21.19,0,0,1,3.85-6c6.9-7.23,2.15-16.59,2.15-16.59s-5.61,4.65-6,5.13-2.62,4.4-4.28,6.56l-.05,5.72S300.35,307.87,300.76,316.14Z" fill="#062f44"/><path d="M284.65,313.92s-3.08,10.14-2.59,13.32,11.75,32.91,11.75,32.91a11.32,11.32,0,0,0,4.52-1.12s-.24-13.09-2.45-21.28-4.78-13.2-7-13.94S285.26,315.62,284.65,313.92Z" fill="#023d5f"/><path d="M294.61,319.94s-3.34,5.32-1.29,10.1-3.44,4-3.44,4-2.75-8-2.14-9,2.87-4.52,3.61-4.7A30.1,30.1,0,0,1,294.61,319.94Z" fill="#16405a"/><path d="M291.24,277.63s-7.15,33.1-8.08,42c-.4,3.78,3.57,10,7.24,6.61,4.38-4.08,11.47-22.77,13.67-26.07s10.44-6.33,4.81-23.08" fill="#023d5f"/><path d="M308.89,233.17a15.4,15.4,0,0,1-.55-5.76c.43-2.44,1.9-6.84,1.35-10.14s-4.71-6.06-9.11-5.63-5.69,4.65-6.42,7.09a25.43,25.43,0,0,0-.43,8.19,5.64,5.64,0,0,0,2,4c.73.43,3.49-.14,4,.39s.85,3.64.85,3.64" fill="#f39f86"/><path d="M311,235.79a5.65,5.65,0,0,0-1-2.62c-.73-.68-5.62-.68-7.09-.5a22.18,22.18,0,0,0-5.56,2.23c-.48.35.46,2.21.46,2.21Z" fill="#c5e6ef"/><path d="M259.86,216.61c0-.35.48-.19.6.1a1.78,1.78,0,0,1,.07.25c0-.58-.08-1-.07-1.16,0-.32.45-.2.59,0a3.45,3.45,0,0,1,0-.47c0-.43.48-.25.6.09a4.41,4.41,0,0,1,.1.59c0-.15,0-.27,0-.32,0-.35.43-.26.55,0a5,5,0,0,1,.13.67c.05.35.15.72.2,1.07a5.72,5.72,0,0,0,.23,1,4.36,4.36,0,0,0,1.6,1.25l1-.52a12.11,12.11,0,0,1,.23,2.21c-.06.51-.43,1.15-.39,1.46a7.47,7.47,0,0,0,.39,1.14L263,225.12a6.8,6.8,0,0,0-.7-1.94,20.15,20.15,0,0,1-1.8-2.16,11.93,11.93,0,0,1-.39-1.3l-.19-1-.08-1S259.85,216.72,259.86,216.61Z" fill="#f39f86"/><path d="M262.55,224.53s.89,5.14,1.77,9.26a39.77,39.77,0,0,0,3.07,9.48s0,.06,0,.08c.86,1.88,2.48,4.18,3.58,4.41a32.67,32.67,0,0,0,5,0c2.4.14,8.42-.65,13.54-1.33l.23,0c2.39-.32,4.57-.61,6.06-.77a3.09,3.09,0,0,0,1.85-.82,2.84,2.84,0,0,0,.9-1.55v0c.34-1.66-.75-3-2.16-4-.06-.05-.14-.08-.2-.13,1.74-1.73,3.53-3.62,3.53-3.62s-4.92.24-7.67.42c-1.87.13-14.63,3.54-16.16,4l-.34.11-.48.09-.3.1a15.11,15.11,0,0,0-1.86-3.5c-2.73-3.85-7.18-13.17-7.18-13.17l-2.48.74h0Z" fill="#c5e6ef"/><path d="M308.71,229s-6.12.52-7.28,0a4.62,4.62,0,0,1-3-3.73c-.15-2.07.27-2.72-.52-3.88s-1.5-.76-1.62.34-.17,3.09-.46,3.23-.85-1.2-.7-3.32a13.25,13.25,0,0,1,.88-4.5c.55-1.22.85-1.15,1.35-1.37a3.79,3.79,0,0,1-2.17-1.94c-1.23-1.91-.55-4.89,2.69-4.88,5.66,0,11.67,1.13,11.8,5.32,0,0,2-.3,2,3.52s-2.38,8.43-2.56,9.62S309.32,228.73,308.71,229Z" fill="#023d5f"/><path d="M291.72,273.92c-.23,1.91-1.91,4.87-.76,5.29a22.1,22.1,0,0,0,4.62-.14h.17c2-.17,4.35-.4,6.3-.55,7.77-.33,11.74,1.22,12.52.78.37-.22.38-.89.26-1.59a18.14,18.14,0,0,1-.12-5.15c.19-1.45.45-3.17.83-5.13,1.28-6.82,3.79-17.22,4.17-23.47.6-9.81-9.9-8.88-9.9-8.88-13.37-.83-19.64,3-20.37,8.76-.05.41-.08.84-.12,1.3-.34,5.93,1.47,15.49,2.32,22.63A35.26,35.26,0,0,1,291.72,273.92Z" fill="#c5e6ef"/><path d="M291.72,273.92c-.23,1.91-1.91,4.87-.76,5.29a22.1,22.1,0,0,0,4.62-.14c-2.07.15-2.45-1.43-2-2.49a15.08,15.08,0,0,0,1.32-6.33c-.09-2.85-1.16-9.26-1.79-15.32a48.86,48.86,0,0,1,0-10.63c-.32.64-1.24,1.54-3.83,2.14,0,5.95,1.57,14.68,2.36,21.32A35.26,35.26,0,0,1,291.72,273.92Z" fill="#afd4dd"/><path d="M127.34,150.52,142.25,115l-11.08,2.24-.17,0-22.15,4.48-.37.07-22.32,4.52-.37.07-10.88,2.2ZM131.07,124,124,140.9,98.92,130.38Z" fill="#8fd8d3"/><g opacity="0.5"><path d="M81,127.33l.24,0,.32,1.62a.13.13,0,0,1-.09.15.14.14,0,0,1-.15-.1Z" fill="#ffb27e" style="mix-blend-mode:screen"/><path d="M81.56,127.21l.18,0,.16.79a.09.09,0,1,1-.18,0Z" fill="#ffb27e" style="mix-blend-mode:screen"/></g><g opacity="0.5"><path d="M82.11,127.1l.24,0,.33,1.62a.13.13,0,0,1-.1.15.12.12,0,0,1-.14-.1Z" fill="#ffb27e" style="mix-blend-mode:screen"/><path d="M82.7,127l.17,0,.16.79a.09.09,0,0,1-.07.11.09.09,0,0,1-.1-.07Z" fill="#ffb27e" style="mix-blend-mode:screen"/></g><g opacity="0.5"><path d="M83.24,126.87l.24,0,.33,1.61a.13.13,0,0,1-.09.15.14.14,0,0,1-.15-.1Z" fill="#ffb27e" style="mix-blend-mode:screen"/><path d="M83.83,126.75l.17,0,.16.79a.09.09,0,0,1-.07.11.09.09,0,0,1-.1-.07Z" fill="#ffb27e" style="mix-blend-mode:screen"/></g><g opacity="0.5"><path d="M84.38,126.64l.24,0,.32,1.61a.11.11,0,0,1-.09.15.14.14,0,0,1-.15-.1Z" fill="#ffb27e" style="mix-blend-mode:screen"/><path d="M85,126.52l.17,0,.16.79a.1.1,0,0,1-.07.11.09.09,0,0,1-.1-.07Z" fill="#ffb27e" style="mix-blend-mode:screen"/></g><g opacity="0.5"><path d="M85.51,126.41l.25,0,.32,1.62a.12.12,0,0,1-.1.15.12.12,0,0,1-.14-.1Z" fill="#ffb27e" style="mix-blend-mode:screen"/><path d="M86.1,126.29l.17,0,.16.79a.09.09,0,0,1-.07.11.1.1,0,0,1-.1-.07Z" fill="#ffb27e" style="mix-blend-mode:screen"/></g><g opacity="0.5"><path d="M86.65,126.19l.24,0,.33,1.61a.13.13,0,0,1-.25,0Z" fill="#ffb27e" style="mix-blend-mode:screen"/><path d="M87.24,126.07l.17,0,.15.78a.08.08,0,1,1-.16,0Z" fill="#ffb27e" style="mix-blend-mode:screen"/></g><g opacity="0.5"><path d="M87.78,126l.25,0,.32,1.61a.13.13,0,1,1-.25,0Z" fill="#ffb27e" style="mix-blend-mode:screen"/><path d="M88.37,125.84l.17,0,.16.79a.09.09,0,0,1-.06.1.09.09,0,0,1-.11-.07Z" fill="#ffb27e" style="mix-blend-mode:screen"/></g><g opacity="0.5"><path d="M88.91,125.73l.25,0,.32,1.61a.11.11,0,0,1-.09.15.13.13,0,0,1-.15-.1Z" fill="#ffb27e" style="mix-blend-mode:screen"/><path d="M89.51,125.61l.17,0,.16.78a.09.09,0,0,1-.07.11.08.08,0,0,1-.1-.07Z" fill="#ffb27e" style="mix-blend-mode:screen"/></g><g opacity="0.5"><path d="M90.05,125.5l.24,0,.33,1.61a.13.13,0,0,1-.1.15.12.12,0,0,1-.14-.1Z" fill="#ffb27e" style="mix-blend-mode:screen"/><path d="M90.64,125.38l.17,0,.16.79a.09.09,0,0,1-.17,0Z" fill="#ffb27e" style="mix-blend-mode:screen"/></g><g opacity="0.5"><path d="M91.19,125.27l.24,0,.32,1.61a.12.12,0,0,1-.09.15.12.12,0,0,1-.15-.1Z" fill="#ffb27e" style="mix-blend-mode:screen"/><path d="M91.77,125.15l.18,0,.16.79a.1.1,0,0,1-.07.1.09.09,0,0,1-.11-.07Z" fill="#ffb27e" style="mix-blend-mode:screen"/></g><g opacity="0.5"><path d="M92.32,125l.24-.05.33,1.61a.13.13,0,0,1-.1.15.11.11,0,0,1-.14-.1Z" fill="#ffb27e" style="mix-blend-mode:screen"/><path d="M92.91,124.92l.17,0,.16.79a.09.09,0,0,1-.07.1.08.08,0,0,1-.1-.07Z" fill="#ffb27e" style="mix-blend-mode:screen"/></g><g opacity="0.5"><path d="M93.45,124.81l.24,0,.33,1.6a.13.13,0,0,1-.1.15.12.12,0,0,1-.14-.1Z" fill="#ffb27e" style="mix-blend-mode:screen"/><path d="M94,124.69l.17,0,.16.79a.09.09,0,0,1-.17,0Z" fill="#ffb27e" style="mix-blend-mode:screen"/></g><g opacity="0.5"><path d="M94.59,124.58l.24,0,.32,1.6a.11.11,0,0,1-.09.15.12.12,0,0,1-.15-.1Z" fill="#ffb27e" style="mix-blend-mode:screen"/><path d="M95.18,124.46l.17,0,.16.79a.1.1,0,0,1-.07.1.08.08,0,0,1-.1-.07Z" fill="#ffb27e" style="mix-blend-mode:screen"/></g><g opacity="0.5"><path d="M95.72,124.35l.25,0,.32,1.61a.12.12,0,0,1-.1.15.12.12,0,0,1-.14-.1Z" fill="#ffb27e" style="mix-blend-mode:screen"/><path d="M96.31,124.23l.17,0,.16.79a.09.09,0,0,1-.07.1.08.08,0,0,1-.1-.07Z" fill="#ffb27e" style="mix-blend-mode:screen"/></g><g opacity="0.5"><path d="M96.85,124.13l.25,0,.33,1.6a.14.14,0,0,1-.1.15.12.12,0,0,1-.15-.1Z" fill="#ffb27e" style="mix-blend-mode:screen"/><path d="M97.45,124l.16,0,.16.79a.08.08,0,0,1-.06.1.09.09,0,0,1-.1-.07Z" fill="#ffb27e" style="mix-blend-mode:screen"/></g><g opacity="0.5"><path d="M98,123.9l.25-.05.32,1.6a.13.13,0,1,1-.25,0Z" fill="#ffb27e" style="mix-blend-mode:screen"/><path d="M98.58,123.78l.17,0,.16.79a.08.08,0,0,1-.06.1.09.09,0,0,1-.11-.07Z" fill="#ffb27e" style="mix-blend-mode:screen"/></g><g opacity="0.5"><path d="M99.12,123.67l.25,0,.32,1.6a.11.11,0,0,1-.09.15.12.12,0,0,1-.15-.1Z" fill="#ffb27e" style="mix-blend-mode:screen"/><path d="M99.72,123.55l.17,0,.16.79a.09.09,0,0,1-.07.1.09.09,0,0,1-.11-.07Z" fill="#ffb27e" style="mix-blend-mode:screen"/></g><g opacity="0.5"><path d="M100.26,123.44l.24,0,.33,1.6a.13.13,0,0,1-.1.15.12.12,0,0,1-.14-.1Z" fill="#ffb27e" style="mix-blend-mode:screen"/><path d="M100.85,123.32l.17,0,.16.79a.08.08,0,0,1-.07.1.09.09,0,0,1-.1-.07Z" fill="#ffb27e" style="mix-blend-mode:screen"/></g><g opacity="0.5"><path d="M101.4,123.21l.24,0,.32,1.6a.15.15,0,0,1-.09.16.13.13,0,0,1-.15-.11Z" fill="#ffb27e" style="mix-blend-mode:screen"/><path d="M102,123.09l.18,0,.16.79a.09.09,0,0,1-.07.1.09.09,0,0,1-.11-.07Z" fill="#ffb27e" style="mix-blend-mode:screen"/></g><g opacity="0.5"><path d="M102.53,123l.24,0,.33,1.6a.14.14,0,0,1-.1.16.12.12,0,0,1-.14-.11Z" fill="#ffb27e" style="mix-blend-mode:screen"/><path d="M103.12,122.86l.17,0,.16.79a.09.09,0,0,1-.17,0Z" fill="#ffb27e" style="mix-blend-mode:screen"/></g><g opacity="0.5"><path d="M103.66,122.75l.24,0,.33,1.61a.14.14,0,0,1-.1.15.13.13,0,0,1-.14-.11Z" fill="#ffb27e" style="mix-blend-mode:screen"/><path d="M104.25,122.63l.17,0,.16.79a.08.08,0,0,1-.07.1.09.09,0,0,1-.1-.07Z" fill="#ffb27e" style="mix-blend-mode:screen"/></g><g opacity="0.5"><path d="M104.8,122.52l.24,0,.32,1.61a.13.13,0,0,1-.09.15.14.14,0,0,1-.15-.11Z" fill="#ffb27e" style="mix-blend-mode:screen"/><path d="M105.39,122.4l.17,0,.16.79a.08.08,0,0,1-.07.1.08.08,0,0,1-.1-.07Z" fill="#ffb27e" style="mix-blend-mode:screen"/></g><g opacity="0.5"><path d="M105.93,122.29l.25-.05.32,1.61a.12.12,0,1,1-.24,0Z" fill="#ffb27e" style="mix-blend-mode:screen"/><path d="M106.52,122.17l.17,0,.16.79a.09.09,0,0,1-.07.11.1.1,0,0,1-.1-.08Z" fill="#ffb27e" style="mix-blend-mode:screen"/></g><g opacity="0.5"><path d="M107.06,122.06l.25,0,.33,1.61a.15.15,0,0,1-.1.15.14.14,0,0,1-.15-.1Z" fill="#ffb27e" style="mix-blend-mode:screen"/><path d="M107.66,121.94l.16,0,.16.79a.08.08,0,0,1-.06.1.08.08,0,0,1-.1-.06Z" fill="#ffb27e" style="mix-blend-mode:screen"/></g><g opacity="0.5"><path d="M108.2,121.83l.24,0,.33,1.61a.14.14,0,0,1-.09.15.15.15,0,0,1-.16-.1Z" fill="#ffb27e" style="mix-blend-mode:screen"/><path d="M108.79,121.71l.17,0,.16.79c0,.05,0,.1-.06.1a.09.09,0,0,1-.11-.06Z" fill="#ffb27e" style="mix-blend-mode:screen"/></g><g opacity="0.5"><path d="M109.33,121.61l.25,0,.32,1.6a.12.12,0,0,1-.09.15.14.14,0,0,1-.15-.1Z" fill="#ffb27e" style="mix-blend-mode:screen"/><path d="M109.93,121.49l.17,0,.16.78a.09.09,0,0,1-.07.11.11.11,0,0,1-.11-.07Z" fill="#ffb27e" style="mix-blend-mode:screen"/></g><g opacity="0.5"><path d="M110.47,121.38l.24,0,.33,1.6a.14.14,0,0,1-.1.15.13.13,0,0,1-.14-.1Z" fill="#ffb27e" style="mix-blend-mode:screen"/><path d="M111.06,121.26l.17,0,.16.78a.09.09,0,0,1-.07.11.1.1,0,0,1-.1-.07Z" fill="#ffb27e" style="mix-blend-mode:screen"/></g><g opacity="0.5"><path d="M111.61,121.15l.24-.05.32,1.6a.12.12,0,1,1-.24,0Z" fill="#ffb27e" style="mix-blend-mode:screen"/><path d="M112.19,121l.18,0,.16.78a.11.11,0,0,1-.07.11.1.1,0,0,1-.11-.07Z" fill="#ffb27e" style="mix-blend-mode:screen"/></g><g opacity="0.5"><path d="M112.74,120.92l.24,0,.32,1.6a.12.12,0,0,1-.09.15.14.14,0,0,1-.15-.1Z" fill="#ffb27e" style="mix-blend-mode:screen"/><path d="M113.33,120.8l.17,0,.16.78a.09.09,0,0,1-.07.11.09.09,0,0,1-.1-.07Z" fill="#ffb27e" style="mix-blend-mode:screen"/></g><g opacity="0.5"><path d="M113.87,120.69l.24,0,.33,1.6a.13.13,0,0,1-.1.15.13.13,0,0,1-.14-.1Z" fill="#ffb27e" style="mix-blend-mode:screen"/><path d="M114.46,120.57l.17,0,.16.78a.09.09,0,0,1-.07.11.1.1,0,0,1-.1-.07Z" fill="#ffb27e" style="mix-blend-mode:screen"/></g><g opacity="0.5"><path d="M115,120.46l.24,0,.32,1.6a.12.12,0,0,1-.09.15.14.14,0,0,1-.15-.1Z" fill="#ffb27e" style="mix-blend-mode:screen"/><path d="M115.6,120.34l.17,0,.16.78a.1.1,0,0,1-.07.11.09.09,0,0,1-.1-.07Z" fill="#ffb27e" style="mix-blend-mode:screen"/></g><g opacity="0.5"><path d="M116.14,120.23l.25,0,.32,1.6a.12.12,0,0,1-.1.15.12.12,0,0,1-.14-.1Z" fill="#ffb27e" style="mix-blend-mode:screen"/><path d="M116.74,120.11l.16,0,.16.78a.09.09,0,0,1-.07.11.09.09,0,0,1-.1-.07Z" fill="#ffb27e" style="mix-blend-mode:screen"/></g><g opacity="0.5"><path d="M117.28,120l.24,0,.33,1.6a.14.14,0,0,1-.1.15.13.13,0,0,1-.15-.1Z" fill="#ffb27e" style="mix-blend-mode:screen"/><path d="M117.87,119.88l.17,0,.15.78a.09.09,0,0,1-.06.11.08.08,0,0,1-.1-.07Z" fill="#ffb27e" style="mix-blend-mode:screen"/></g><g opacity="0.5"><path d="M118.41,119.77l.25,0,.32,1.6a.13.13,0,1,1-.25.05Z" fill="#ffb27e" style="mix-blend-mode:screen"/><path d="M119,119.65l.17,0,.16.79a.09.09,0,1,1-.17,0Z" fill="#ffb27e" style="mix-blend-mode:screen"/></g><g opacity="0.5"><path d="M119.54,119.54l.25-.05.32,1.6a.11.11,0,0,1-.09.15.13.13,0,0,1-.15-.1Z" fill="#ffb27e" style="mix-blend-mode:screen"/><path d="M120.14,119.42l.17,0,.16.78a.09.09,0,0,1-.18,0Z" fill="#ffb27e" style="mix-blend-mode:screen"/></g><g opacity="0.5"><path d="M120.68,119.31l.24,0,.33,1.6a.13.13,0,0,1-.1.15.12.12,0,0,1-.14-.1Z" fill="#ffb27e" style="mix-blend-mode:screen"/><path d="M121.27,119.19l.17,0,.16.78a.09.09,0,0,1-.07.11.09.09,0,0,1-.1-.07Z" fill="#ffb27e" style="mix-blend-mode:screen"/></g><g opacity="0.5"><path d="M121.82,119.08l.24,0,.32,1.6a.13.13,0,0,1-.09.15.12.12,0,0,1-.15-.1Z" fill="#ffb27e" style="mix-blend-mode:screen"/><path d="M122.4,119l.18,0,.15.78a.09.09,0,0,1-.06.1.09.09,0,0,1-.11-.07Z" fill="#ffb27e" style="mix-blend-mode:screen"/></g><g opacity="0.5"><path d="M123,118.85l.24,0,.32,1.6a.11.11,0,0,1-.09.15.12.12,0,0,1-.15-.1Z" fill="#ffb27e" style="mix-blend-mode:screen"/><path d="M123.54,118.73l.17,0,.16.78a.09.09,0,0,1-.07.1.08.08,0,0,1-.1-.07Z" fill="#ffb27e" style="mix-blend-mode:screen"/></g><g opacity="0.5"><path d="M124.08,118.62l.24-.05.33,1.6a.13.13,0,0,1-.1.15.12.12,0,0,1-.14-.1Z" fill="#ffb27e" style="mix-blend-mode:screen"/><path d="M124.67,118.5l.17,0,.16.78a.09.09,0,1,1-.17,0Z" fill="#ffb27e" style="mix-blend-mode:screen"/></g><g opacity="0.5"><path d="M125.22,118.39l.24,0,.32,1.6a.12.12,0,0,1-.09.15.12.12,0,0,1-.15-.1Z" fill="#ffb27e" style="mix-blend-mode:screen"/><path d="M125.81,118.27l.17,0,.16.78a.1.1,0,0,1-.07.1.08.08,0,0,1-.1-.07Z" fill="#ffb27e" style="mix-blend-mode:screen"/></g><g opacity="0.5"><path d="M126.35,118.16l.25,0,.32,1.6a.12.12,0,0,1-.1.15.11.11,0,0,1-.14-.1Z" fill="#ffb27e" style="mix-blend-mode:screen"/><path d="M126.94,118l.17,0,.16.78a.09.09,0,0,1-.07.1.08.08,0,0,1-.1-.07Z" fill="#ffb27e" style="mix-blend-mode:screen"/></g><g opacity="0.5"><path d="M127.49,117.93l.24-.05.33,1.6a.13.13,0,0,1-.11.15.12.12,0,0,1-.14-.1Z" fill="#ffb27e" style="mix-blend-mode:screen"/><path d="M128.08,117.81l.17,0,.15.78a.08.08,0,0,1-.06.1.08.08,0,0,1-.1-.07Z" fill="#ffb27e" style="mix-blend-mode:screen"/></g><g opacity="0.5"><path d="M128.62,117.7l.25,0,.32,1.6a.13.13,0,1,1-.25,0Z" fill="#ffb27e" style="mix-blend-mode:screen"/><path d="M129.21,117.58l.17,0,.16.78a.08.08,0,0,1-.07.1.09.09,0,0,1-.1-.07Z" fill="#ffb27e" style="mix-blend-mode:screen"/></g><g opacity="0.5"><path d="M129.75,117.47l.25,0,.32,1.6a.11.11,0,0,1-.09.15.12.12,0,0,1-.15-.1Z" fill="#ffb27e" style="mix-blend-mode:screen"/><path d="M130.35,117.35l.17,0,.16.78a.1.1,0,0,1-.07.1.09.09,0,0,1-.11-.07Z" fill="#ffb27e" style="mix-blend-mode:screen"/></g><g opacity="0.5"><path d="M130.89,117.24l.24,0,.33,1.6a.13.13,0,0,1-.1.15.12.12,0,0,1-.14-.1Z" fill="#ffb27e" style="mix-blend-mode:screen"/><path d="M131.48,117.12l.17,0,.16.78a.09.09,0,0,1-.17,0Z" fill="#ffb27e" style="mix-blend-mode:screen"/></g><g opacity="0.5"><path d="M132,117l.24,0,.32,1.59a.15.15,0,0,1-.09.16.13.13,0,0,1-.15-.11Z" fill="#ffb27e" style="mix-blend-mode:screen"/><path d="M132.61,116.9l.18,0,.15.77a.08.08,0,0,1-.06.1.09.09,0,0,1-.11-.07Z" fill="#ffb27e" style="mix-blend-mode:screen"/></g><g opacity="0.5"><path d="M133.16,116.79l.24-.05.32,1.59a.13.13,0,0,1-.09.16.14.14,0,0,1-.15-.11Z" fill="#ffb27e" style="mix-blend-mode:screen"/><path d="M133.75,116.67l.17,0,.16.77a.08.08,0,0,1-.07.1.09.09,0,0,1-.11-.07Z" fill="#ffb27e" style="mix-blend-mode:screen"/></g><g opacity="0.5"><path d="M134.3,116.56l.24,0,.32,1.6a.14.14,0,0,1-.1.15.13.13,0,0,1-.14-.11Z" fill="#ffb27e" style="mix-blend-mode:screen"/><path d="M134.88,116.44l.18,0,.15.77a.08.08,0,0,1-.07.1.09.09,0,0,1-.1-.07Z" fill="#ffb27e" style="mix-blend-mode:screen"/></g><g opacity="0.5"><path d="M135.43,116.33l.24,0,.32,1.6a.13.13,0,0,1-.09.15.13.13,0,0,1-.15-.11Z" fill="#ffb27e" style="mix-blend-mode:screen"/><path d="M136,116.21l.17,0,.16.77a.09.09,0,0,1-.07.1.08.08,0,0,1-.1-.07Z" fill="#ffb27e" style="mix-blend-mode:screen"/></g><path d="M79.88,125.58c-1.13,8.65,2.43,17.39,6,15,5.63-3.78,14-16.19,14.81-16.22.47,0,.9.26,2.27.29a12.84,12.84,0,0,0,2.45-.37c.13,0,.3-.11.3-.25a.28.28,0,0,0-.14-.21,1.62,1.62,0,0,0-1-.25c-.29,0-.65,0-.73-.32a.43.43,0,0,1,.18-.44,1.14,1.14,0,0,1,.47-.19c.89-.23,2-.44,2.88-.67-.54-.16-1.31-.34-1.86-.47a6.63,6.63,0,0,0-1.26-.21,16.36,16.36,0,0,0-2.62.1,8.08,8.08,0,0,0-2.79,1.05A11.78,11.78,0,0,0,97,123.66c-1.52,1.19-7.3,8-8.56,8.9" fill="#db856e"/><path d="M113.9,154.68a39.59,39.59,0,0,0-2.65,9.31c-.61,4.22,1.75,11,1.48,15.88a15.85,15.85,0,0,1-.58,3.95c-.45.84-1.46,1.77-1.56,2.9a1.73,1.73,0,0,0,1.12,1.69c.79.36,1.31-.06,1.59,0,1.64.14,2,1.32,4.77,1.68a4.46,4.46,0,0,0,2.94-.81.61.61,0,0,0,.11-.84c-.17-.24-2.25-.86-3.2-1.4a5.74,5.74,0,0,1-2-2.51,23.38,23.38,0,0,1,.42-4.47c1.21-7.91,2.71-19.06,3.52-23.68" fill="#db856e"/><path d="M121.23,189.42c.2-.34.25-.85.06-1a16.75,16.75,0,0,0-1.77-.95c-.55-.22-1.42-.41-1.11-.26s-.24.75-.75.74c-1.77,0-3.09-1.13-4.09-1.34a2.7,2.7,0,0,1-1.87-2.15,7.18,7.18,0,0,0-1.3,1.89,3.19,3.19,0,0,0-.19,1.46,3.19,3.19,0,0,1,.18,1.37,2.64,2.64,0,0,0,1,.33,4.26,4.26,0,0,0,1.12,0l.11-.87a4,4,0,0,1,.9.06,3,3,0,0,1,1.37.69c.22.21.43.54.7.65a6.1,6.1,0,0,0,2.27.47C119.8,190.56,120.89,190,121.23,189.42Z" fill="#023d5f"/><path d="M89.86,144.16l-12.77,7.3s.81,4.8,6.59,6c3.35.72,8.62-.24,10-.17s23.43.87,23.43.87,2.18.47,2.58-1.25c.61-2.7,0-3.55-1.81-4.75C114.83,150.16,103.13,146.32,89.86,144.16Z" fill="#db856e"/><path d="M113.65,156.39a39.91,39.91,0,0,0,0,9.68c.59,4.23,4.94,11.3,6,16.09a16.53,16.53,0,0,1,.54,4c-.21.94-.92,2.12-.71,3.23a1.75,1.75,0,0,0,1.55,1.31c.85.13,1.24-.41,1.52-.47,1.61-.32,2.24.73,5,.3a4.48,4.48,0,0,0,2.61-1.59.6.6,0,0,0-.13-.83c-.23-.19-2.4-.21-3.46-.47a5.77,5.77,0,0,1-2.66-1.85,25,25,0,0,1-.82-4.4c-1-8-3-21.34-3.53-26" fill="#ed9c80"/><path d="M130.53,189c.1-.38,0-.88-.22-.94a14.54,14.54,0,0,0-2-.43c-.59-.07-1.48,0-1.14.05s0,.8-.52.92c-1.71.44-3.27-.23-4.3-.16a2.71,2.71,0,0,1-2.39-1.54,6.76,6.76,0,0,0-.72,2.17,3.05,3.05,0,0,0,.21,1.45,3.14,3.14,0,0,1,.56,1.28,2.81,2.81,0,0,0,1.09,0,4.17,4.17,0,0,0,1.08-.32l-.14-.87a4.3,4.3,0,0,1,.88-.2,3,3,0,0,1,1.51.29,2.78,2.78,0,0,0,.86.43,5.84,5.84,0,0,0,2.3-.18C129.46,190.51,130.36,189.67,130.53,189Z" fill="#023d5f"/><path d="M90.13,145.06l-12.78,7.3s.51,4.65,6.3,5.89c3.35.71,8.92-.09,10.31,0s23.42.86,23.42.86,2.15.46,2.26-1.3c.15-2.35.33-3.49-1.49-4.7C115.09,151.07,103.4,147.22,90.13,145.06Z" fill="#ed9c80"/><path d="M79.82,141s-4,7.78-3,11.09,3,6.45,8.46,6.49,19.23,0,19.23,0a20.77,20.77,0,0,1,1.69-5.83,17.05,17.05,0,0,1,3.16-4s-14-4.3-14.91-5.22a12.48,12.48,0,0,1-1.92-3" fill="#023d5f"/><path d="M82.15,115.81a27.28,27.28,0,0,0-2.9,11,35.14,35.14,0,0,0,5.52.79" fill="#c5e6ef"/><path d="M92.8,112.89c.73.25.46,2,1.19,2.23.53.18,1.57-.05,2.06.22,2.58,1.46,1.92,4.36,2.23,8,1.09,2.76,1.38,5.27.51,6.81-1.08,1.91-2.22,2.45-3.55,4-1,1.19-1.32,3.63-1.52,6.25,0,.45.34,1.24.23,1.68-.21.84-1.49,1.1-2.91,1.13-3.29.06-8.27-1.13-9.73-1.08s-2.68-.62-2.55-1.43c.1-.57.67-.8.89-1.9.5-2.42.88-8.48,1.26-10.53,1-5.26,1.71-9.17,3.87-14" fill="#c5e6ef"/><path d="M100.26,125.5a23.83,23.83,0,0,0-3-3.9l-2.8,1.26c1.31,2.53,1.55,5.51,2.16,8.27a6.37,6.37,0,0,0,1.62-.15c.27-.45.17-.23.53-.87A11.22,11.22,0,0,0,100.26,125.5Z" fill="#afd4dd"/><path d="M102.17,105.79a14.06,14.06,0,0,0,.48-3.63c-.08-2.08-.34-5.1-3.81-6.34s-7.29-.5-8.42,2-.87,6.28-1,8.31a12.55,12.55,0,0,1-1.65,4.44l7.46,3.21a14.28,14.28,0,0,1,1.72-3c.51-.31.68,1,2.34.81.71-.06,1.46-1.33,2-2.89l.06-.15a7.41,7.41,0,0,0,.89-.08c.51-.15.47-.38.35-.7A8.54,8.54,0,0,1,102.17,105.79Z" fill="#ed9c80"/><path d="M114.3,146.76a4,4,0,0,0,2.44,2.15,1.42,1.42,0,0,0,.86-.16c.43.11,1.72,0,1.13-.63a3.67,3.67,0,0,0,2.84.15c.34-.07.27-.47-.52-.55a3.84,3.84,0,0,1-2.65-1.59c.13-.15.29.05.73.05s.7-.25.68-.46-.61-.25-.75-.31l-1.55-.7a2.76,2.76,0,0,0-1.57-.3c-.1,0-1.11.24-.79.56" fill="#ed9c80"/><path d="M96.85,126.93s3.92,10.56,4.6,11.42c2.69,3.4,13.24,8.75,13.24,8.75a2.07,2.07,0,0,0,1.31-2.31c-3.25-1.42-9.24-8-10.55-8.8-.85-.52-4.6-13.42-4.6-13.42" fill="#ed9c80"/><path d="M98.46,115.19c-2.83-1.08-5.54-1.09-7.72-3.26-2.2,1.7,2.66,11.5,3.87,11.76s2.83,5.68,3.13,6.42c3.93-.1,5.36-2.25,5.36-2.25C101.5,122.94,101.21,116.24,98.46,115.19Z" fill="#c5e6ef"/><path d="M96.19,115.46c-.2-.74-.75-1.32-.88-2.08a3.34,3.34,0,0,1,.42-2.23,4,4,0,0,1,1-.92c1.56-1.23,2.1-2.25,1.58-4.09A5,5,0,0,1,98,104.3c.06-.57.18-1.16.78-1.23.42,0,.7.06.84.41s-.1,2,.49,1a4.13,4.13,0,0,0,1-3.27c0-.26-.1-1.34.07-1.5a4.33,4.33,0,0,1,1.46,3,2.19,2.19,0,0,0,1-1.88,4.83,4.83,0,0,0-.41-2.23,6.56,6.56,0,0,0-4-4,8.92,8.92,0,0,0-3.68-1c-1.28,0-2.86.41-3.23,1.37-1.77-.46-2.78,1.09-3.2,1.64a9.32,9.32,0,0,0-1.36,2.64c-.45,1.4-.56,2.88-.92,4.31a6.24,6.24,0,0,1-1.68,3.17c-.86.78-2.07.85-3,1.57a4.71,4.71,0,0,0-1.79,3.91c.07,1.5.84,3.11-.07,4.49-.29.44-.7.8-1,1.25a3.42,3.42,0,0,0,.06,3.52,6.32,6.32,0,0,0,3,2.6,9.07,9.07,0,0,0,3.3.46c2.15-.12,4,0,6.23-1.94,1.29-1.1.47-1.73,1.7-2.9.7-.66,1.68-1,2.19-1.85a3.34,3.34,0,0,0,.33-2.38S96.2,115.49,96.19,115.46Z" fill="#023d5f"/><polygon points="162.44 29.87 143.25 49.75 143.46 42.9 162.44 29.87" fill="#c5e6ef" opacity="0.75"/><polygon points="133.48 39.54 153.63 47.84 162.44 29.87 133.48 39.54" fill="#c5e6ef"/><polygon points="162.44 29.87 140.74 42.53 143.25 49.75 144.96 44.26 162.44 29.87" fill="#94dee0"/><line x1="269.74" y1="62.58" x2="308.35" y2="101.2" fill="none" stroke="#94dee0" stroke-miterlimit="10"/><path d="M310.15,79.23l-20,3.1,15.4-16.62a4.52,4.52,0,1,0,0-6.42,4.51,4.51,0,0,0,0,6.42l0,0L289.39,81.57s2.35-13.82,3.15-20.68c5-2.33,18.81-9.93,22.67-12.82l1.26-.93s-3-2.62,8,8.35c-.31.37-.64.78-1,1.22C318.27,63.34,310.15,79.23,310.15,79.23Z" fill="#c5e6ef"/><path d="M331.76,55.4l-3.35,3.36a1.61,1.61,0,0,1-2.28,0L312.64,45.27a1.6,1.6,0,0,1-.07-2.19.28.28,0,0,1,.07-.09L316,39.64a1.6,1.6,0,0,1,2.27,0l13.49,13.49A1.6,1.6,0,0,1,331.76,55.4Z" fill="#94dee0"/><path d="M331.76,55.4l-3.35,3.36a1.61,1.61,0,0,1-2.28,0L312.64,45.27a1.6,1.6,0,0,1-.07-2.19c10.46,11.78,14.06,7.62,15,5.84l4.2,4.21A1.6,1.6,0,0,1,331.76,55.4Z" fill="#86d5db"/><path d="M321.56,80.06c-9.47,9.47-23.86,10.43-32.15,2.14s-7.33-22.68,2.14-32.15" fill="none" stroke="#94dee0" stroke-miterlimit="10"/><path d="M271,63.88a1.83,1.83,0,1,1,0-2.59A1.84,1.84,0,0,1,271,63.88Z" fill="#94dee0"/><path d="M292.82,51.5a1.83,1.83,0,1,1,0-2.59A1.82,1.82,0,0,1,292.82,51.5Z" fill="#94dee0"/><path d="M322.56,81.35a1.83,1.83,0,1,1,0-2.59A1.82,1.82,0,0,1,322.56,81.35Z" fill="#94dee0"/><path d="M309.65,102.49a1.83,1.83,0,1,1,0-2.59A1.82,1.82,0,0,1,309.65,102.49Z" fill="#94dee0"/><line x1="228.76" y1="1.49" x2="228.76" y2="42.2" fill="none" stroke="#ffc840" stroke-linecap="round" stroke-linejoin="round" stroke-width="2.99"/><line x1="279.34" y1="13.16" x2="257.95" y2="47.8" fill="none" stroke="#ffc840" stroke-linecap="round" stroke-linejoin="round" stroke-width="2.99"/><line x1="178.18" y1="13.16" x2="199.57" y2="47.8" fill="none" stroke="#ffc840" stroke-linecap="round" stroke-linejoin="round" stroke-width="2.99"/><rect x="41.03" y="173.71" width="8.27" height="8.27" transform="translate(-59.87 27.4) rotate(-20.67)" fill="none" stroke="#94dee0" stroke-miterlimit="10"/><path d="M52.5,170.74a4.68,4.68,0,1,1-6-2.72A4.69,4.69,0,0,1,52.5,170.74Z" fill="none" stroke="#94dee0" stroke-miterlimit="10"/><path d="M343.12,100.31l.17-1.74-2.37-1-1.12,1.35-1.49-.62,5-5.58,1.69.7-.42,7.5Zm.32-3c.15-1.59.24-2.48.26-2.69s0-.37.06-.48c-.26.33-.93,1.16-2,2.46Z" fill="#94dee0"/><line x1="349.65" y1="95.68" x2="347.16" y2="101.66" fill="none" stroke="#94dee0" stroke-miterlimit="10" stroke-width="0.5"/><line x1="345.71" y1="101.06" x2="348.6" y2="102.27" fill="none" stroke="#94dee0" stroke-miterlimit="10" stroke-width="0.5"/><line x1="348.2" y1="95.08" x2="351.09" y2="96.28" fill="none" stroke="#94dee0" stroke-miterlimit="10" stroke-width="0.5"/><line x1="347.9" y1="92.21" x2="341.91" y2="89.72" fill="none" stroke="#94dee0" stroke-miterlimit="10" stroke-width="0.5"/><line x1="342.52" y1="88.27" x2="341.31" y2="91.17" fill="none" stroke="#94dee0" stroke-miterlimit="10" stroke-width="0.5"/><line x1="348.5" y1="90.76" x2="347.29" y2="93.66" fill="none" stroke="#94dee0" stroke-miterlimit="10" stroke-width="0.5"/><rect x="62.56" y="247.54" width="29.05" height="29.05" rx="6.13" transform="translate(-152.88 114.64) rotate(-40.95)" fill="#8fd8d3"/><path d="M70.07,258c.49-.43,1-.84,1.47-1.28a.52.52,0,0,1,.69-.1c.78.5,1.55,1,2.34,1.49l2.4,1.47,1.71,1.08c.55.35,1.11.68,1.67,1l1.75,1.09,1.59,1c.74.45,1.48.88,2.21,1.35,0,0,0,.3,0,.37-.4.39-.83.74-1.25,1.11l-1.2,1a.38.38,0,0,1-.55,0c-.85-.56-1.72-1.08-2.59-1.61l-.24-.2a.53.53,0,0,0-.8,0c-1,.84-1.91,1.67-2.87,2.5-.19.16-.21.29-.09.53.45.92.88,1.86,1.29,2.81.32.76.3.77-.34,1.32s-1.22,1-1.81,1.57c-.25.23-.41.21-.55-.09-.27-.62-.53-1.24-.81-1.85s-.58-1.28-.86-1.92-.52-1.17-.78-1.76l-1.2-2.7-1.14-2.58c-.39-.89-.79-1.77-1.19-2.66-.15-.32-.3-.65-.44-1a.63.63,0,0,1,.22-.85c.5-.37.94-.8,1.41-1.2Zm1.8,2.25c0,.08,0,.13,0,.16.29.6.58,1.18.88,1.77.37.77.75,1.53,1.13,2.29l.66,1.28c.13.23.28.24.47.07L77.07,264c.18-.15.18-.28-.06-.4s-.7-.4-1-.62l-3.3-2.25C72.42,260.57,72.16,260.42,71.87,260.25Z" fill="#fff"/><path d="M86.15,257.62c1.16,1.33,2.31,2.67,3.47,4,.24.27.26.44,0,.69-.69.57-1.37,1.17-2,1.78-.28.25-.46.22-.71-.06-2.29-2.66-4.6-5.31-6.9-8-.42-.49-.42-.51.06-.93.63-.54,1.27-1.07,1.88-1.63.3-.29.49-.27.76.05,1.16,1.36,2.35,2.71,3.52,4.07Z" fill="#fff"/><path d="M77.59,250.55a1.81,1.81,0,0,1,2.68.14,1.73,1.73,0,0,1-.29,2.63,1.79,1.79,0,0,1-2.68-.13A1.82,1.82,0,0,1,77.59,250.55Z" fill="#fff"/><path d="M120.14,94.61l1.2-.2c-.07-.41-.13-.8-.2-1.2l1.19-.2q.44,2.56.87,5.17L125.46,95l-2.26.38c-.07-.41-.14-.8-.2-1.21l.09,0,3.33-.56a.2.2,0,0,0,.15-.1l1-1.33a.59.59,0,0,0,0-.08l.61.42a.16.16,0,0,0-.07.07c-.32.44-.64.88-.95,1.33a.17.17,0,0,0,0,.15l.57,3.34,0,.1-1.21.21c-.13-.77-.26-1.54-.39-2.29l-2.3,3.19v0l5.15-.87c.07.4.13.79.2,1.19l-1.18.2c.07.41.14.81.2,1.22l-1.2.21-.21-1.22-4.47.76-.75-4.45-1.2.2Z" fill="#94dee0"/><path d="M401.4,185.31c.22-.49.43-1,.64-1.46l-1.46-.64.63-1.45,6.3,2.74-1.92-4.77c-.39.88-.79,1.81-1.2,2.74l-1.47-.64.05-.12,1.76-4.05a.29.29,0,0,0,0-.24c-.27-.66-.53-1.32-.79-2l-.06-.1.89-.37a.5.5,0,0,0,0,.13l.78,2a.24.24,0,0,0,.14.14L409.8,179l.13.05-.64,1.47-2.78-1.21q.92,2.4,1.85,4.82h0q1.37-3.12,2.73-6.27l1.45.63-.63,1.44,1.49.65c-.22.49-.43,1-.64,1.47l-1.48-.64-2.37,5.44-5.42-2.35c-.22.49-.43,1-.64,1.46Z" fill="#94dee0"/></g></g></g></svg>